%TF.GenerationSoftware,KiCad,Pcbnew,(6.0.5-0)*%
%TF.CreationDate,2022-05-18T00:34:25-07:00*%
%TF.ProjectId,INV_Board,494e565f-426f-4617-9264-2e6b69636164,rev?*%
%TF.SameCoordinates,Original*%
%TF.FileFunction,Soldermask,Top*%
%TF.FilePolarity,Negative*%
%FSLAX46Y46*%
G04 Gerber Fmt 4.6, Leading zero omitted, Abs format (unit mm)*
G04 Created by KiCad (PCBNEW (6.0.5-0)) date 2022-05-18 00:34:25*
%MOMM*%
%LPD*%
G01*
G04 APERTURE LIST*
G04 Aperture macros list*
%AMRoundRect*
0 Rectangle with rounded corners*
0 $1 Rounding radius*
0 $2 $3 $4 $5 $6 $7 $8 $9 X,Y pos of 4 corners*
0 Add a 4 corners polygon primitive as box body*
4,1,4,$2,$3,$4,$5,$6,$7,$8,$9,$2,$3,0*
0 Add four circle primitives for the rounded corners*
1,1,$1+$1,$2,$3*
1,1,$1+$1,$4,$5*
1,1,$1+$1,$6,$7*
1,1,$1+$1,$8,$9*
0 Add four rect primitives between the rounded corners*
20,1,$1+$1,$2,$3,$4,$5,0*
20,1,$1+$1,$4,$5,$6,$7,0*
20,1,$1+$1,$6,$7,$8,$9,0*
20,1,$1+$1,$8,$9,$2,$3,0*%
G04 Aperture macros list end*
%ADD10C,0.100000*%
%ADD11RoundRect,0.276000X-0.250000X0.225000X-0.250000X-0.225000X0.250000X-0.225000X0.250000X0.225000X0*%
%ADD12RoundRect,0.301000X0.625000X-0.350000X0.625000X0.350000X-0.625000X0.350000X-0.625000X-0.350000X0*%
%ADD13O,1.852000X1.302000*%
%ADD14RoundRect,0.251000X0.200000X0.275000X-0.200000X0.275000X-0.200000X-0.275000X0.200000X-0.275000X0*%
%ADD15RoundRect,0.051000X1.750000X-1.475000X1.750000X1.475000X-1.750000X1.475000X-1.750000X-1.475000X0*%
%ADD16RoundRect,0.251000X-0.275000X0.200000X-0.275000X-0.200000X0.275000X-0.200000X0.275000X0.200000X0*%
%ADD17RoundRect,0.201000X-0.150000X0.825000X-0.150000X-0.825000X0.150000X-0.825000X0.150000X0.825000X0*%
%ADD18RoundRect,0.051000X-1.500000X1.145000X-1.500000X-1.145000X1.500000X-1.145000X1.500000X1.145000X0*%
%ADD19RoundRect,0.251000X-0.200000X-0.275000X0.200000X-0.275000X0.200000X0.275000X-0.200000X0.275000X0*%
%ADD20RoundRect,0.276000X-0.225000X-0.250000X0.225000X-0.250000X0.225000X0.250000X-0.225000X0.250000X0*%
%ADD21RoundRect,0.301000X-1.500000X-0.550000X1.500000X-0.550000X1.500000X0.550000X-1.500000X0.550000X0*%
%ADD22RoundRect,0.051000X0.550000X0.550000X-0.550000X0.550000X-0.550000X-0.550000X0.550000X-0.550000X0*%
%ADD23RoundRect,0.251000X0.275000X-0.200000X0.275000X0.200000X-0.275000X0.200000X-0.275000X-0.200000X0*%
%ADD24RoundRect,0.276000X0.225000X0.250000X-0.225000X0.250000X-0.225000X-0.250000X0.225000X-0.250000X0*%
%ADD25RoundRect,0.276000X0.250000X-0.225000X0.250000X0.225000X-0.250000X0.225000X-0.250000X-0.225000X0*%
%ADD26RoundRect,0.051000X0.200000X-0.325000X0.200000X0.325000X-0.200000X0.325000X-0.200000X-0.325000X0*%
%ADD27RoundRect,0.269750X-0.218750X-0.256250X0.218750X-0.256250X0.218750X0.256250X-0.218750X0.256250X0*%
%ADD28RoundRect,0.201000X0.825000X0.150000X-0.825000X0.150000X-0.825000X-0.150000X0.825000X-0.150000X0*%
%ADD29RoundRect,0.051000X1.205000X1.650000X-1.205000X1.650000X-1.205000X-1.650000X1.205000X-1.650000X0*%
%ADD30RoundRect,0.201000X-0.587500X-0.150000X0.587500X-0.150000X0.587500X0.150000X-0.587500X0.150000X0*%
%ADD31RoundRect,0.301000X-0.325000X-0.650000X0.325000X-0.650000X0.325000X0.650000X-0.325000X0.650000X0*%
%ADD32RoundRect,0.201000X-0.825000X-0.150000X0.825000X-0.150000X0.825000X0.150000X-0.825000X0.150000X0*%
%ADD33RoundRect,0.051000X-0.550000X-0.550000X0.550000X-0.550000X0.550000X0.550000X-0.550000X0.550000X0*%
%ADD34RoundRect,0.051000X-0.325000X-0.200000X0.325000X-0.200000X0.325000X0.200000X-0.325000X0.200000X0*%
%ADD35RoundRect,0.301000X-0.350000X-0.625000X0.350000X-0.625000X0.350000X0.625000X-0.350000X0.625000X0*%
%ADD36O,1.302000X1.852000*%
%ADD37RoundRect,0.201000X0.512500X0.150000X-0.512500X0.150000X-0.512500X-0.150000X0.512500X-0.150000X0*%
%ADD38RoundRect,0.051000X-1.200000X1.200000X-1.200000X-1.200000X1.200000X-1.200000X1.200000X1.200000X0*%
%ADD39C,2.502000*%
%ADD40RoundRect,0.051000X0.650000X0.850000X-0.650000X0.850000X-0.650000X-0.850000X0.650000X-0.850000X0*%
%ADD41C,6.102000*%
%ADD42RoundRect,0.051000X0.850000X-0.850000X0.850000X0.850000X-0.850000X0.850000X-0.850000X-0.850000X0*%
%ADD43O,1.802000X1.802000*%
%ADD44RoundRect,0.051000X0.550000X-0.550000X0.550000X0.550000X-0.550000X0.550000X-0.550000X-0.550000X0*%
%ADD45RoundRect,0.051000X0.600000X-0.450000X0.600000X0.450000X-0.600000X0.450000X-0.600000X-0.450000X0*%
%ADD46RoundRect,0.051000X-0.600000X0.450000X-0.600000X-0.450000X0.600000X-0.450000X0.600000X0.450000X0*%
%ADD47RoundRect,0.051000X0.450000X0.600000X-0.450000X0.600000X-0.450000X-0.600000X0.450000X-0.600000X0*%
%ADD48RoundRect,0.051000X-0.550000X0.650000X-0.550000X-0.650000X0.550000X-0.650000X0.550000X0.650000X0*%
%ADD49RoundRect,0.051000X-0.650000X-0.850000X0.650000X-0.850000X0.650000X0.850000X-0.650000X0.850000X0*%
%ADD50RoundRect,0.051000X0.850000X-0.650000X0.850000X0.650000X-0.850000X0.650000X-0.850000X-0.650000X0*%
%ADD51RoundRect,0.051000X-0.850000X0.650000X-0.850000X-0.650000X0.850000X-0.650000X0.850000X0.650000X0*%
%ADD52RoundRect,0.301000X1.425000X-0.362500X1.425000X0.362500X-1.425000X0.362500X-1.425000X-0.362500X0*%
%ADD53RoundRect,0.051000X1.475000X1.750000X-1.475000X1.750000X-1.475000X-1.750000X1.475000X-1.750000X0*%
%ADD54RoundRect,0.201000X0.150000X-0.825000X0.150000X0.825000X-0.150000X0.825000X-0.150000X-0.825000X0*%
%ADD55RoundRect,0.051000X2.300000X0.550000X-2.300000X0.550000X-2.300000X-0.550000X2.300000X-0.550000X0*%
%ADD56RoundRect,0.051000X4.700000X5.400000X-4.700000X5.400000X-4.700000X-5.400000X4.700000X-5.400000X0*%
%ADD57RoundRect,0.051000X0.550000X-2.300000X0.550000X2.300000X-0.550000X2.300000X-0.550000X-2.300000X0*%
%ADD58RoundRect,0.051000X5.400000X-4.700000X5.400000X4.700000X-5.400000X4.700000X-5.400000X-4.700000X0*%
%ADD59RoundRect,0.126000X-0.075000X0.662500X-0.075000X-0.662500X0.075000X-0.662500X0.075000X0.662500X0*%
%ADD60RoundRect,0.126000X-0.662500X0.075000X-0.662500X-0.075000X0.662500X-0.075000X0.662500X0.075000X0*%
G04 APERTURE END LIST*
D10*
G36*
X179070000Y-92710000D02*
G01*
X173070000Y-92710000D01*
X173070000Y-86710000D01*
X179070000Y-86710000D01*
X179070000Y-92710000D01*
G37*
X179070000Y-92710000D02*
X173070000Y-92710000D01*
X173070000Y-86710000D01*
X179070000Y-86710000D01*
X179070000Y-92710000D01*
G36*
X146250000Y-74875000D02*
G01*
X141000000Y-74875000D01*
X141000000Y-69625000D01*
X146250000Y-69625000D01*
X146250000Y-74875000D01*
G37*
X146250000Y-74875000D02*
X141000000Y-74875000D01*
X141000000Y-69625000D01*
X146250000Y-69625000D01*
X146250000Y-74875000D01*
G36*
X169500000Y-54000000D02*
G01*
X154250000Y-54000000D01*
X154250000Y-50500000D01*
X169500000Y-50500000D01*
X169500000Y-54000000D01*
G37*
X169500000Y-54000000D02*
X154250000Y-54000000D01*
X154250000Y-50500000D01*
X169500000Y-50500000D01*
X169500000Y-54000000D01*
G36*
X124500000Y-93726000D02*
G01*
X118500000Y-93726000D01*
X118500000Y-87726000D01*
X124500000Y-87726000D01*
X124500000Y-93726000D01*
G37*
X124500000Y-93726000D02*
X118500000Y-93726000D01*
X118500000Y-87726000D01*
X124500000Y-87726000D01*
X124500000Y-93726000D01*
G36*
X199000000Y-74500000D02*
G01*
X195250000Y-74500000D01*
X195250000Y-69250000D01*
X199000000Y-69250000D01*
X199000000Y-74500000D01*
G37*
X199000000Y-74500000D02*
X195250000Y-74500000D01*
X195250000Y-69250000D01*
X199000000Y-69250000D01*
X199000000Y-74500000D01*
G36*
X173000000Y-74500000D02*
G01*
X168500000Y-74500000D01*
X168500000Y-69250000D01*
X173000000Y-69250000D01*
X173000000Y-74500000D01*
G37*
X173000000Y-74500000D02*
X168500000Y-74500000D01*
X168500000Y-69250000D01*
X173000000Y-69250000D01*
X173000000Y-74500000D01*
G36*
X169500000Y-65600000D02*
G01*
X154250000Y-65600000D01*
X154250000Y-62100000D01*
X169500000Y-62100000D01*
X169500000Y-65600000D01*
G37*
X169500000Y-65600000D02*
X154250000Y-65600000D01*
X154250000Y-62100000D01*
X169500000Y-62100000D01*
X169500000Y-65600000D01*
G36*
X152019000Y-93249000D02*
G01*
X146019000Y-93249000D01*
X146019000Y-87249000D01*
X152019000Y-87249000D01*
X152019000Y-93249000D01*
G37*
X152019000Y-93249000D02*
X146019000Y-93249000D01*
X146019000Y-87249000D01*
X152019000Y-87249000D01*
X152019000Y-93249000D01*
G36*
X179070000Y-92710000D02*
G01*
X173070000Y-92710000D01*
X173070000Y-86710000D01*
X179070000Y-86710000D01*
X179070000Y-92710000D01*
G37*
X179070000Y-92710000D02*
X173070000Y-92710000D01*
X173070000Y-86710000D01*
X179070000Y-86710000D01*
X179070000Y-92710000D01*
G36*
X146250000Y-74875000D02*
G01*
X141000000Y-74875000D01*
X141000000Y-69625000D01*
X146250000Y-69625000D01*
X146250000Y-74875000D01*
G37*
X146250000Y-74875000D02*
X141000000Y-74875000D01*
X141000000Y-69625000D01*
X146250000Y-69625000D01*
X146250000Y-74875000D01*
G36*
X169500000Y-54000000D02*
G01*
X154250000Y-54000000D01*
X154250000Y-50500000D01*
X169500000Y-50500000D01*
X169500000Y-54000000D01*
G37*
X169500000Y-54000000D02*
X154250000Y-54000000D01*
X154250000Y-50500000D01*
X169500000Y-50500000D01*
X169500000Y-54000000D01*
G36*
X124500000Y-93726000D02*
G01*
X118500000Y-93726000D01*
X118500000Y-87726000D01*
X124500000Y-87726000D01*
X124500000Y-93726000D01*
G37*
X124500000Y-93726000D02*
X118500000Y-93726000D01*
X118500000Y-87726000D01*
X124500000Y-87726000D01*
X124500000Y-93726000D01*
G36*
X199000000Y-74500000D02*
G01*
X195250000Y-74500000D01*
X195250000Y-69250000D01*
X199000000Y-69250000D01*
X199000000Y-74500000D01*
G37*
X199000000Y-74500000D02*
X195250000Y-74500000D01*
X195250000Y-69250000D01*
X199000000Y-69250000D01*
X199000000Y-74500000D01*
G36*
X173000000Y-74500000D02*
G01*
X168500000Y-74500000D01*
X168500000Y-69250000D01*
X173000000Y-69250000D01*
X173000000Y-74500000D01*
G37*
X173000000Y-74500000D02*
X168500000Y-74500000D01*
X168500000Y-69250000D01*
X173000000Y-69250000D01*
X173000000Y-74500000D01*
G36*
X169500000Y-65600000D02*
G01*
X154250000Y-65600000D01*
X154250000Y-62100000D01*
X169500000Y-62100000D01*
X169500000Y-65600000D01*
G37*
X169500000Y-65600000D02*
X154250000Y-65600000D01*
X154250000Y-62100000D01*
X169500000Y-62100000D01*
X169500000Y-65600000D01*
G36*
X152019000Y-93249000D02*
G01*
X146019000Y-93249000D01*
X146019000Y-87249000D01*
X152019000Y-87249000D01*
X152019000Y-93249000D01*
G37*
X152019000Y-93249000D02*
X146019000Y-93249000D01*
X146019000Y-87249000D01*
X152019000Y-87249000D01*
X152019000Y-93249000D01*
D11*
%TO.C,C32*%
X144653000Y-106908000D03*
X144653000Y-108458000D03*
%TD*%
D12*
%TO.C,J6*%
X196215000Y-132715000D03*
D13*
X196215000Y-130715000D03*
X196215000Y-128715000D03*
X196215000Y-126715000D03*
X196215000Y-124715000D03*
X196215000Y-122715000D03*
X196215000Y-120715000D03*
X196215000Y-118715000D03*
%TD*%
D14*
%TO.C,R28*%
X120205000Y-129032000D03*
X118555000Y-129032000D03*
%TD*%
D11*
%TO.C,C23*%
X127522500Y-109447000D03*
X127522500Y-110997000D03*
%TD*%
D15*
%TO.C,L2*%
X132080000Y-119634000D03*
X132080000Y-114184000D03*
%TD*%
D16*
%TO.C,R44*%
X137160000Y-121095000D03*
X137160000Y-122745000D03*
%TD*%
%TO.C,R16*%
X121400000Y-120587000D03*
X121400000Y-122237000D03*
%TD*%
D17*
%TO.C,U8*%
X142240000Y-108585000D03*
X140970000Y-108585000D03*
X139700000Y-108585000D03*
X138430000Y-108585000D03*
X138430000Y-113535000D03*
X139700000Y-113535000D03*
X140970000Y-113535000D03*
X142240000Y-113535000D03*
D18*
X140335000Y-111060000D03*
%TD*%
D19*
%TO.C,R33*%
X187135000Y-118110000D03*
X188785000Y-118110000D03*
%TD*%
D11*
%TO.C,C30*%
X136525000Y-109702000D03*
X136525000Y-111252000D03*
%TD*%
D20*
%TO.C,C33*%
X139560000Y-120650000D03*
X141110000Y-120650000D03*
%TD*%
%TO.C,C44*%
X144018000Y-123952000D03*
X145568000Y-123952000D03*
%TD*%
D21*
%TO.C,C18*%
X119568000Y-54610000D03*
X124968000Y-54610000D03*
%TD*%
D22*
%TO.C,D14*%
X143770000Y-117475000D03*
X140970000Y-117475000D03*
%TD*%
D15*
%TO.C,L3*%
X149225000Y-118480000D03*
X149225000Y-113030000D03*
%TD*%
D19*
%TO.C,R6*%
X136144000Y-62484000D03*
X137794000Y-62484000D03*
%TD*%
D20*
%TO.C,C24*%
X121260000Y-124777000D03*
X122810000Y-124777000D03*
%TD*%
D23*
%TO.C,R1*%
X191770000Y-123507000D03*
X191770000Y-121857000D03*
%TD*%
D20*
%TO.C,C22*%
X121260000Y-127127000D03*
X122810000Y-127127000D03*
%TD*%
D24*
%TO.C,C11*%
X188214000Y-131318000D03*
X186664000Y-131318000D03*
%TD*%
D20*
%TO.C,C26*%
X127382500Y-123317000D03*
X128932500Y-123317000D03*
%TD*%
D16*
%TO.C,R35*%
X138684000Y-116650000D03*
X138684000Y-118300000D03*
%TD*%
D25*
%TO.C,C17*%
X139700000Y-64262000D03*
X139700000Y-62712000D03*
%TD*%
D26*
%TO.C,U14*%
X151496000Y-124587000D03*
X152146000Y-124587000D03*
X152796000Y-124587000D03*
X152796000Y-122687000D03*
X152146000Y-122687000D03*
X151496000Y-122687000D03*
%TD*%
D27*
%TO.C,D3*%
X178435000Y-117348000D03*
X180010000Y-117348000D03*
%TD*%
D28*
%TO.C,U3*%
X133220000Y-63310000D03*
X133220000Y-62040000D03*
X133220000Y-60770000D03*
X133220000Y-59500000D03*
X128270000Y-59500000D03*
X128270000Y-60770000D03*
X128270000Y-62040000D03*
X128270000Y-63310000D03*
D29*
X130745000Y-61405000D03*
%TD*%
D30*
%TO.C,Q1*%
X181259000Y-120523000D03*
X181259000Y-122423000D03*
X183134000Y-121473000D03*
%TD*%
D11*
%TO.C,C45*%
X141986000Y-125476000D03*
X141986000Y-127026000D03*
%TD*%
D20*
%TO.C,C31*%
X139560000Y-123190000D03*
X141110000Y-123190000D03*
%TD*%
D31*
%TO.C,C3*%
X133350000Y-55880000D03*
X136300000Y-55880000D03*
%TD*%
D32*
%TO.C,U2*%
X177422000Y-125349000D03*
X177422000Y-126619000D03*
X177422000Y-127889000D03*
X177422000Y-129159000D03*
X182372000Y-129159000D03*
X182372000Y-127889000D03*
X182372000Y-126619000D03*
X182372000Y-125349000D03*
%TD*%
D11*
%TO.C,C21*%
X118999000Y-114033000D03*
X118999000Y-115583000D03*
%TD*%
D14*
%TO.C,R2*%
X183705000Y-117348000D03*
X182055000Y-117348000D03*
%TD*%
D24*
%TO.C,C12*%
X188214000Y-129286000D03*
X186664000Y-129286000D03*
%TD*%
D33*
%TO.C,D4*%
X128140000Y-56896000D03*
X130940000Y-56896000D03*
%TD*%
D30*
%TO.C,Q2*%
X186387500Y-122174000D03*
X186387500Y-124074000D03*
X188262500Y-123124000D03*
%TD*%
D16*
%TO.C,R29*%
X119126000Y-124587000D03*
X119126000Y-126237000D03*
%TD*%
D20*
%TO.C,C43*%
X144018000Y-121412000D03*
X145568000Y-121412000D03*
%TD*%
D14*
%TO.C,R43*%
X138810000Y-125730000D03*
X137160000Y-125730000D03*
%TD*%
D20*
%TO.C,C25*%
X129908000Y-110109000D03*
X131458000Y-110109000D03*
%TD*%
%TO.C,C5*%
X186677000Y-127254000D03*
X188227000Y-127254000D03*
%TD*%
%TO.C,C29*%
X190995000Y-118110000D03*
X192545000Y-118110000D03*
%TD*%
D11*
%TO.C,C28*%
X124982500Y-126987000D03*
X124982500Y-128537000D03*
%TD*%
D17*
%TO.C,U5*%
X125349000Y-112333000D03*
X124079000Y-112333000D03*
X122809000Y-112333000D03*
X121539000Y-112333000D03*
X121539000Y-117283000D03*
X122809000Y-117283000D03*
X124079000Y-117283000D03*
X125349000Y-117283000D03*
D18*
X123444000Y-114808000D03*
%TD*%
D20*
%TO.C,C37*%
X147574000Y-108966000D03*
X149124000Y-108966000D03*
%TD*%
D34*
%TO.C,U12*%
X176977000Y-109967000D03*
X176977000Y-110617000D03*
X176977000Y-111267000D03*
X178877000Y-111267000D03*
X178877000Y-110617000D03*
X178877000Y-109967000D03*
%TD*%
D20*
%TO.C,C27*%
X127242500Y-125857000D03*
X128792500Y-125857000D03*
%TD*%
D31*
%TO.C,C2*%
X130908000Y-52832000D03*
X133858000Y-52832000D03*
%TD*%
D26*
%TO.C,U13*%
X177023000Y-133665000D03*
X177673000Y-133665000D03*
X178323000Y-133665000D03*
X178323000Y-131765000D03*
X177673000Y-131765000D03*
X177023000Y-131765000D03*
%TD*%
D22*
%TO.C,D8*%
X126610000Y-120967000D03*
X123810000Y-120967000D03*
%TD*%
D20*
%TO.C,C54*%
X165225000Y-67150000D03*
X166775000Y-67150000D03*
%TD*%
D23*
%TO.C,R34*%
X140716000Y-104177500D03*
X140716000Y-102527500D03*
%TD*%
%TO.C,R26*%
X169545000Y-111950000D03*
X169545000Y-110300000D03*
%TD*%
D19*
%TO.C,R19*%
X185357000Y-103124000D03*
X187007000Y-103124000D03*
%TD*%
D35*
%TO.C,J5*%
X144018000Y-132842000D03*
D36*
X146018000Y-132842000D03*
X148018000Y-132842000D03*
X150018000Y-132842000D03*
X152018000Y-132842000D03*
X154018000Y-132842000D03*
X156018000Y-132842000D03*
X158018000Y-132842000D03*
%TD*%
D23*
%TO.C,R32*%
X135890000Y-100672500D03*
X135890000Y-99022500D03*
%TD*%
D19*
%TO.C,R31*%
X135547500Y-96520000D03*
X137197500Y-96520000D03*
%TD*%
D23*
%TO.C,R24*%
X165100000Y-99732500D03*
X165100000Y-98082500D03*
%TD*%
D19*
%TO.C,R23*%
X164910000Y-95885000D03*
X166560000Y-95885000D03*
%TD*%
D23*
%TO.C,R18*%
X191000000Y-99732500D03*
X191000000Y-98082500D03*
%TD*%
D19*
%TO.C,R17*%
X192367500Y-94996000D03*
X194017500Y-94996000D03*
%TD*%
D37*
%TO.C,U7*%
X140372500Y-100330000D03*
X140372500Y-99380000D03*
X140372500Y-98430000D03*
X138097500Y-98430000D03*
X138097500Y-99380000D03*
X138097500Y-100330000D03*
%TD*%
%TO.C,U6*%
X169537500Y-100010000D03*
X169537500Y-99060000D03*
X169537500Y-98110000D03*
X167262500Y-98110000D03*
X167262500Y-99060000D03*
X167262500Y-100010000D03*
%TD*%
%TO.C,U4*%
X195617500Y-99248000D03*
X195617500Y-98298000D03*
X195617500Y-97348000D03*
X193342500Y-97348000D03*
X193342500Y-98298000D03*
X193342500Y-99248000D03*
%TD*%
D20*
%TO.C,C47*%
X191975000Y-67250000D03*
X193525000Y-67250000D03*
%TD*%
D38*
%TO.C,C46*%
X191500000Y-53500000D03*
D39*
X191500000Y-61000000D03*
%TD*%
D19*
%TO.C,TH1*%
X185331500Y-97028000D03*
X186981500Y-97028000D03*
%TD*%
D14*
%TO.C,R22*%
X157136500Y-117729000D03*
X155486500Y-117729000D03*
%TD*%
D23*
%TO.C,R30*%
X155575000Y-125615000D03*
X155575000Y-123965000D03*
%TD*%
D16*
%TO.C,R20*%
X165735000Y-127978500D03*
X165735000Y-129628500D03*
%TD*%
D40*
%TO.C,D9*%
X157960000Y-119888000D03*
X154460000Y-119888000D03*
%TD*%
D24*
%TO.C,C64*%
X176275000Y-74500000D03*
X174725000Y-74500000D03*
%TD*%
%TO.C,C61*%
X176275000Y-72250000D03*
X174725000Y-72250000D03*
%TD*%
%TO.C,C58*%
X176275000Y-70000000D03*
X174725000Y-70000000D03*
%TD*%
%TO.C,C56*%
X176275000Y-67750000D03*
X174725000Y-67750000D03*
%TD*%
D20*
%TO.C,C53*%
X165225000Y-69400000D03*
X166775000Y-69400000D03*
%TD*%
%TO.C,C51*%
X164960000Y-71650000D03*
X166510000Y-71650000D03*
%TD*%
D24*
%TO.C,C50*%
X149525000Y-75250000D03*
X147975000Y-75250000D03*
%TD*%
%TO.C,C74*%
X149525000Y-73000000D03*
X147975000Y-73000000D03*
%TD*%
%TO.C,C73*%
X149525000Y-70750000D03*
X147975000Y-70750000D03*
%TD*%
D20*
%TO.C,C72*%
X137775000Y-67500000D03*
X139325000Y-67500000D03*
%TD*%
%TO.C,C70*%
X137775000Y-69750000D03*
X139325000Y-69750000D03*
%TD*%
%TO.C,C69*%
X137775000Y-72000000D03*
X139325000Y-72000000D03*
%TD*%
D24*
%TO.C,C67*%
X121616000Y-74168000D03*
X120066000Y-74168000D03*
%TD*%
%TO.C,C62*%
X121616000Y-71744000D03*
X120066000Y-71744000D03*
%TD*%
D11*
%TO.C,C20*%
X186690000Y-112229500D03*
X186690000Y-113779500D03*
%TD*%
%TO.C,C19*%
X189230000Y-112229500D03*
X189230000Y-113779500D03*
%TD*%
%TO.C,C16*%
X191770000Y-112229500D03*
X191770000Y-113779500D03*
%TD*%
D41*
%TO.C,J8*%
X162000000Y-60850000D03*
X162000000Y-53650000D03*
%TD*%
D42*
%TO.C,J3*%
X118364000Y-133604000D03*
D43*
X120904000Y-133604000D03*
X123444000Y-133604000D03*
X125984000Y-133604000D03*
X128524000Y-133604000D03*
X131064000Y-133604000D03*
%TD*%
D12*
%TO.C,J4*%
X196173000Y-113411000D03*
D13*
X196173000Y-111411000D03*
X196173000Y-109411000D03*
X196173000Y-107411000D03*
X196173000Y-105411000D03*
X196173000Y-103411000D03*
%TD*%
D23*
%TO.C,R14*%
X149352000Y-129323500D03*
X149352000Y-127673500D03*
%TD*%
D16*
%TO.C,R13*%
X152019000Y-127673500D03*
X152019000Y-129323500D03*
%TD*%
D44*
%TO.C,D17*%
X143510000Y-100330000D03*
X143510000Y-97530000D03*
%TD*%
D20*
%TO.C,C7*%
X172732500Y-112395000D03*
X174282500Y-112395000D03*
%TD*%
D23*
%TO.C,R15*%
X186690000Y-110019500D03*
X186690000Y-108369500D03*
%TD*%
%TO.C,R11*%
X189230000Y-110019500D03*
X189230000Y-108369500D03*
%TD*%
%TO.C,R7*%
X191770000Y-110019500D03*
X191770000Y-108369500D03*
%TD*%
D19*
%TO.C,R12*%
X181394500Y-112014000D03*
X183044500Y-112014000D03*
%TD*%
%TO.C,R10*%
X181420000Y-109982000D03*
X183070000Y-109982000D03*
%TD*%
%TO.C,R5*%
X181394500Y-107950000D03*
X183044500Y-107950000D03*
%TD*%
D16*
%TO.C,R25*%
X158242000Y-127724500D03*
X158242000Y-129374500D03*
%TD*%
%TO.C,R21*%
X155194000Y-127724500D03*
X155194000Y-129374500D03*
%TD*%
%TO.C,R27*%
X167640000Y-127978500D03*
X167640000Y-129628500D03*
%TD*%
D45*
%TO.C,D21*%
X143256000Y-92201000D03*
X143256000Y-88901000D03*
%TD*%
D46*
%TO.C,D20*%
X123698000Y-79631000D03*
X123698000Y-82931000D03*
%TD*%
D45*
%TO.C,D25*%
X170434000Y-91440000D03*
X170434000Y-88140000D03*
%TD*%
D46*
%TO.C,D24*%
X150876000Y-79250000D03*
X150876000Y-82550000D03*
%TD*%
D45*
%TO.C,D23*%
X197358000Y-91565000D03*
X197358000Y-88265000D03*
%TD*%
D47*
%TO.C,D22*%
X177672000Y-84201000D03*
X174372000Y-84201000D03*
%TD*%
D38*
%TO.C,C42*%
X149000000Y-53500000D03*
D39*
X149000000Y-61000000D03*
%TD*%
D38*
%TO.C,C41*%
X175000000Y-53500000D03*
D39*
X175000000Y-61000000D03*
%TD*%
D20*
%TO.C,C57*%
X191975000Y-69500000D03*
X193525000Y-69500000D03*
%TD*%
%TO.C,C59*%
X191975000Y-71750000D03*
X193525000Y-71750000D03*
%TD*%
D44*
%TO.C,D15*%
X119634000Y-100838000D03*
X119634000Y-98038000D03*
%TD*%
D25*
%TO.C,C1*%
X131826000Y-130086500D03*
X131826000Y-128536500D03*
%TD*%
D35*
%TO.C,J7*%
X164592000Y-132842000D03*
D36*
X166592000Y-132842000D03*
X168592000Y-132842000D03*
X170592000Y-132842000D03*
X172592000Y-132842000D03*
%TD*%
D11*
%TO.C,C71*%
X155448000Y-104254000D03*
X155448000Y-105804000D03*
%TD*%
D48*
%TO.C,X1*%
X163260800Y-109560400D03*
X163260800Y-111660400D03*
X164910800Y-111660400D03*
X164910800Y-109560400D03*
%TD*%
D14*
%TO.C,R65*%
X164083000Y-103505000D03*
X162433000Y-103505000D03*
%TD*%
D19*
%TO.C,R58*%
X121603000Y-107696000D03*
X123253000Y-107696000D03*
%TD*%
%TO.C,R51*%
X131255000Y-106045000D03*
X132905000Y-106045000D03*
%TD*%
D16*
%TO.C,R42*%
X152908000Y-108078000D03*
X152908000Y-109728000D03*
%TD*%
D23*
%TO.C,R41*%
X154813000Y-109728000D03*
X154813000Y-108078000D03*
%TD*%
D16*
%TO.C,R37*%
X170815000Y-104585000D03*
X170815000Y-106235000D03*
%TD*%
%TO.C,R36*%
X165735000Y-105067500D03*
X165735000Y-106717500D03*
%TD*%
D49*
%TO.C,D26*%
X132715000Y-103505000D03*
X136215000Y-103505000D03*
%TD*%
D50*
%TO.C,D19*%
X157226000Y-114935000D03*
X157226000Y-111435000D03*
%TD*%
D51*
%TO.C,D13*%
X168275000Y-104775000D03*
X168275000Y-108275000D03*
%TD*%
D49*
%TO.C,D11*%
X175189000Y-122809000D03*
X178689000Y-122809000D03*
%TD*%
D24*
%TO.C,C10*%
X163182500Y-124460000D03*
X161632500Y-124460000D03*
%TD*%
D52*
%TO.C,R52*%
X142250000Y-83586500D03*
X142250000Y-77661500D03*
%TD*%
%TO.C,R54*%
X170815000Y-82972500D03*
X170815000Y-77047500D03*
%TD*%
%TO.C,R53*%
X196850000Y-82972500D03*
X196850000Y-77047500D03*
%TD*%
D16*
%TO.C,R66*%
X157480000Y-106363000D03*
X157480000Y-108013000D03*
%TD*%
D23*
%TO.C,R4*%
X139065000Y-60032500D03*
X139065000Y-58382500D03*
%TD*%
D14*
%TO.C,R3*%
X137756500Y-64770000D03*
X136106500Y-64770000D03*
%TD*%
D53*
%TO.C,L1*%
X124714000Y-62484000D03*
X119264000Y-62484000D03*
%TD*%
D11*
%TO.C,C13*%
X128270000Y-51574500D03*
X128270000Y-53124500D03*
%TD*%
D24*
%TO.C,C8*%
X129553000Y-65405000D03*
X128003000Y-65405000D03*
%TD*%
D25*
%TO.C,C4*%
X135890000Y-59830000D03*
X135890000Y-58280000D03*
%TD*%
D54*
%TO.C,U9*%
X122555000Y-104775000D03*
X123825000Y-104775000D03*
X125095000Y-104775000D03*
X126365000Y-104775000D03*
X126365000Y-99825000D03*
X125095000Y-99825000D03*
X123825000Y-99825000D03*
X122555000Y-99825000D03*
%TD*%
%TO.C,U11*%
X146050000Y-104075000D03*
X147320000Y-104075000D03*
X148590000Y-104075000D03*
X149860000Y-104075000D03*
X149860000Y-99125000D03*
X148590000Y-99125000D03*
X147320000Y-99125000D03*
X146050000Y-99125000D03*
%TD*%
D52*
%TO.C,R55*%
X138250000Y-83586500D03*
X138250000Y-77661500D03*
%TD*%
%TO.C,R57*%
X166815000Y-82972500D03*
X166815000Y-77047500D03*
%TD*%
D19*
%TO.C,R47*%
X128715000Y-103505000D03*
X130365000Y-103505000D03*
%TD*%
%TO.C,R45*%
X119444000Y-81661000D03*
X121094000Y-81661000D03*
%TD*%
%TO.C,R50*%
X152057500Y-103505000D03*
X153707500Y-103505000D03*
%TD*%
%TO.C,R46*%
X147003000Y-96266000D03*
X148653000Y-96266000D03*
%TD*%
D14*
%TO.C,R38*%
X123735500Y-96774000D03*
X122085500Y-96774000D03*
%TD*%
%TO.C,R40*%
X145122500Y-95250000D03*
X143472500Y-95250000D03*
%TD*%
D19*
%TO.C,R48*%
X175705000Y-94361000D03*
X177355000Y-94361000D03*
%TD*%
D55*
%TO.C,Q4*%
X139025000Y-92140000D03*
D56*
X129875000Y-89600000D03*
D55*
X139025000Y-87060000D03*
%TD*%
D57*
%TO.C,Q3*%
X126460000Y-81025000D03*
D58*
X129000000Y-71875000D03*
D57*
X131540000Y-81025000D03*
%TD*%
D55*
%TO.C,Q8*%
X166376000Y-92456000D03*
D56*
X157226000Y-89916000D03*
D55*
X166376000Y-87376000D03*
%TD*%
D57*
%TO.C,Q7*%
X153960000Y-80975000D03*
D58*
X156500000Y-71825000D03*
D57*
X159040000Y-80975000D03*
%TD*%
D55*
%TO.C,Q6*%
X193227000Y-92202000D03*
D56*
X184077000Y-89662000D03*
D55*
X193227000Y-87122000D03*
%TD*%
D20*
%TO.C,C68*%
X137225000Y-74250000D03*
X138775000Y-74250000D03*
%TD*%
%TO.C,C52*%
X165455000Y-73660000D03*
X167005000Y-73660000D03*
%TD*%
D24*
%TO.C,C48*%
X121666000Y-69596000D03*
X120116000Y-69596000D03*
%TD*%
D11*
%TO.C,C38*%
X120142000Y-103619000D03*
X120142000Y-105169000D03*
%TD*%
%TO.C,C40*%
X143510000Y-102577500D03*
X143510000Y-104127500D03*
%TD*%
%TO.C,C34*%
X128270000Y-99555000D03*
X128270000Y-101105000D03*
%TD*%
%TO.C,C36*%
X151765000Y-99555000D03*
X151765000Y-101105000D03*
%TD*%
D20*
%TO.C,C9*%
X173037500Y-114300000D03*
X174587500Y-114300000D03*
%TD*%
D54*
%TO.C,U10*%
X175895000Y-104140000D03*
X177165000Y-104140000D03*
X178435000Y-104140000D03*
X179705000Y-104140000D03*
X179705000Y-99190000D03*
X178435000Y-99190000D03*
X177165000Y-99190000D03*
X175895000Y-99190000D03*
%TD*%
D59*
%TO.C,U1*%
X171025000Y-115217500D03*
X170525000Y-115217500D03*
X170025000Y-115217500D03*
X169525000Y-115217500D03*
X169025000Y-115217500D03*
X168525000Y-115217500D03*
X168025000Y-115217500D03*
X167525000Y-115217500D03*
X167025000Y-115217500D03*
X166525000Y-115217500D03*
X166025000Y-115217500D03*
X165525000Y-115217500D03*
D60*
X164112500Y-116630000D03*
X164112500Y-117130000D03*
X164112500Y-117630000D03*
X164112500Y-118130000D03*
X164112500Y-118630000D03*
X164112500Y-119130000D03*
X164112500Y-119630000D03*
X164112500Y-120130000D03*
X164112500Y-120630000D03*
X164112500Y-121130000D03*
X164112500Y-121630000D03*
X164112500Y-122130000D03*
D59*
X165525000Y-123542500D03*
X166025000Y-123542500D03*
X166525000Y-123542500D03*
X167025000Y-123542500D03*
X167525000Y-123542500D03*
X168025000Y-123542500D03*
X168525000Y-123542500D03*
X169025000Y-123542500D03*
X169525000Y-123542500D03*
X170025000Y-123542500D03*
X170525000Y-123542500D03*
X171025000Y-123542500D03*
D60*
X172437500Y-122130000D03*
X172437500Y-121630000D03*
X172437500Y-121130000D03*
X172437500Y-120630000D03*
X172437500Y-120130000D03*
X172437500Y-119630000D03*
X172437500Y-119130000D03*
X172437500Y-118630000D03*
X172437500Y-118130000D03*
X172437500Y-117630000D03*
X172437500Y-117130000D03*
X172437500Y-116630000D03*
%TD*%
D19*
%TO.C,R49*%
X181420000Y-104140000D03*
X183070000Y-104140000D03*
%TD*%
D14*
%TO.C,R39*%
X176872500Y-96520000D03*
X175222500Y-96520000D03*
%TD*%
D52*
%TO.C,R56*%
X192850000Y-82972500D03*
X192850000Y-77047500D03*
%TD*%
D57*
%TO.C,Q5*%
X180710000Y-80825000D03*
D58*
X183250000Y-71675000D03*
D57*
X185790000Y-80825000D03*
%TD*%
D44*
%TO.C,D16*%
X173355000Y-101225000D03*
X173355000Y-98425000D03*
%TD*%
D20*
%TO.C,C60*%
X191225000Y-73750000D03*
X192775000Y-73750000D03*
%TD*%
D11*
%TO.C,C39*%
X173990000Y-103365000D03*
X173990000Y-104915000D03*
%TD*%
%TO.C,C35*%
X181610000Y-99402500D03*
X181610000Y-100952500D03*
%TD*%
D20*
%TO.C,C6*%
X172732500Y-110490000D03*
X174282500Y-110490000D03*
%TD*%
D24*
%TO.C,C55*%
X149525000Y-68500000D03*
X147975000Y-68500000D03*
%TD*%
G36*
X177263660Y-133307493D02*
G01*
X177277452Y-133316709D01*
X177278615Y-133314969D01*
X177280409Y-133314084D01*
X177281560Y-133314545D01*
X177298952Y-133329078D01*
X177367670Y-133337704D01*
X177415288Y-133314918D01*
X177417282Y-133315072D01*
X177417814Y-133315611D01*
X177418548Y-133316709D01*
X177432340Y-133307493D01*
X177434336Y-133307362D01*
X177435447Y-133309025D01*
X177435114Y-133310267D01*
X177427767Y-133321262D01*
X177424000Y-133340199D01*
X177424000Y-133989801D01*
X177427767Y-134008738D01*
X177435114Y-134019733D01*
X177435245Y-134021729D01*
X177433582Y-134022840D01*
X177432340Y-134022507D01*
X177418548Y-134013291D01*
X177417385Y-134015031D01*
X177415591Y-134015916D01*
X177414440Y-134015455D01*
X177397048Y-134000922D01*
X177328330Y-133992296D01*
X177280712Y-134015082D01*
X177278718Y-134014928D01*
X177278186Y-134014389D01*
X177277452Y-134013291D01*
X177263660Y-134022507D01*
X177261664Y-134022638D01*
X177260553Y-134020975D01*
X177260886Y-134019733D01*
X177268233Y-134008738D01*
X177272000Y-133989801D01*
X177272000Y-133340199D01*
X177268233Y-133321262D01*
X177260886Y-133310267D01*
X177260755Y-133308271D01*
X177262418Y-133307160D01*
X177263660Y-133307493D01*
G37*
G36*
X177913660Y-133307493D02*
G01*
X177927452Y-133316709D01*
X177928615Y-133314969D01*
X177930409Y-133314084D01*
X177931560Y-133314545D01*
X177948952Y-133329078D01*
X178017670Y-133337704D01*
X178065288Y-133314918D01*
X178067282Y-133315072D01*
X178067814Y-133315611D01*
X178068548Y-133316709D01*
X178082340Y-133307493D01*
X178084336Y-133307362D01*
X178085447Y-133309025D01*
X178085114Y-133310267D01*
X178077767Y-133321262D01*
X178074000Y-133340199D01*
X178074000Y-133989801D01*
X178077767Y-134008738D01*
X178085114Y-134019733D01*
X178085245Y-134021729D01*
X178083582Y-134022840D01*
X178082340Y-134022507D01*
X178068548Y-134013291D01*
X178067385Y-134015031D01*
X178065591Y-134015916D01*
X178064440Y-134015455D01*
X178047048Y-134000922D01*
X177978330Y-133992296D01*
X177930712Y-134015082D01*
X177928718Y-134014928D01*
X177928186Y-134014389D01*
X177927452Y-134013291D01*
X177913660Y-134022507D01*
X177911664Y-134022638D01*
X177910553Y-134020975D01*
X177910886Y-134019733D01*
X177918233Y-134008738D01*
X177922000Y-133989801D01*
X177922000Y-133340199D01*
X177918233Y-133321262D01*
X177910886Y-133310267D01*
X177910755Y-133308271D01*
X177912418Y-133307160D01*
X177913660Y-133307493D01*
G37*
G36*
X177263660Y-131407493D02*
G01*
X177277452Y-131416709D01*
X177278615Y-131414969D01*
X177280409Y-131414084D01*
X177281560Y-131414545D01*
X177298952Y-131429078D01*
X177367670Y-131437704D01*
X177415288Y-131414918D01*
X177417282Y-131415072D01*
X177417814Y-131415611D01*
X177418548Y-131416709D01*
X177432340Y-131407493D01*
X177434336Y-131407362D01*
X177435447Y-131409025D01*
X177435114Y-131410267D01*
X177427767Y-131421262D01*
X177424000Y-131440199D01*
X177424000Y-132089801D01*
X177427767Y-132108738D01*
X177435114Y-132119733D01*
X177435245Y-132121729D01*
X177433582Y-132122840D01*
X177432340Y-132122507D01*
X177418548Y-132113291D01*
X177417385Y-132115031D01*
X177415591Y-132115916D01*
X177414440Y-132115455D01*
X177397048Y-132100922D01*
X177328330Y-132092296D01*
X177280712Y-132115082D01*
X177278718Y-132114928D01*
X177278186Y-132114389D01*
X177277452Y-132113291D01*
X177263660Y-132122507D01*
X177261664Y-132122638D01*
X177260553Y-132120975D01*
X177260886Y-132119733D01*
X177268233Y-132108738D01*
X177272000Y-132089801D01*
X177272000Y-131440199D01*
X177268233Y-131421262D01*
X177260886Y-131410267D01*
X177260755Y-131408271D01*
X177262418Y-131407160D01*
X177263660Y-131407493D01*
G37*
G36*
X177913660Y-131407493D02*
G01*
X177927452Y-131416709D01*
X177928615Y-131414969D01*
X177930409Y-131414084D01*
X177931560Y-131414545D01*
X177948952Y-131429078D01*
X178017670Y-131437704D01*
X178065288Y-131414918D01*
X178067282Y-131415072D01*
X178067814Y-131415611D01*
X178068548Y-131416709D01*
X178082340Y-131407493D01*
X178084336Y-131407362D01*
X178085447Y-131409025D01*
X178085114Y-131410267D01*
X178077767Y-131421262D01*
X178074000Y-131440199D01*
X178074000Y-132089801D01*
X178077767Y-132108738D01*
X178085114Y-132119733D01*
X178085245Y-132121729D01*
X178083582Y-132122840D01*
X178082340Y-132122507D01*
X178068548Y-132113291D01*
X178067385Y-132115031D01*
X178065591Y-132115916D01*
X178064440Y-132115455D01*
X178047048Y-132100922D01*
X177978330Y-132092296D01*
X177930712Y-132115082D01*
X177928718Y-132114928D01*
X177928186Y-132114389D01*
X177927452Y-132113291D01*
X177913660Y-132122507D01*
X177911664Y-132122638D01*
X177910553Y-132120975D01*
X177910886Y-132119733D01*
X177918233Y-132108738D01*
X177922000Y-132089801D01*
X177922000Y-131440199D01*
X177918233Y-131421262D01*
X177910886Y-131410267D01*
X177910755Y-131408271D01*
X177912418Y-131407160D01*
X177913660Y-131407493D01*
G37*
G36*
X151736660Y-124229493D02*
G01*
X151750452Y-124238709D01*
X151751615Y-124236969D01*
X151753409Y-124236084D01*
X151754560Y-124236545D01*
X151771952Y-124251078D01*
X151840670Y-124259704D01*
X151888288Y-124236918D01*
X151890282Y-124237072D01*
X151890814Y-124237611D01*
X151891548Y-124238709D01*
X151905340Y-124229493D01*
X151907336Y-124229362D01*
X151908447Y-124231025D01*
X151908114Y-124232267D01*
X151900767Y-124243262D01*
X151897000Y-124262199D01*
X151897000Y-124911801D01*
X151900767Y-124930738D01*
X151908114Y-124941733D01*
X151908245Y-124943729D01*
X151906582Y-124944840D01*
X151905340Y-124944507D01*
X151891548Y-124935291D01*
X151890385Y-124937031D01*
X151888591Y-124937916D01*
X151887440Y-124937455D01*
X151870048Y-124922922D01*
X151801330Y-124914296D01*
X151753712Y-124937082D01*
X151751718Y-124936928D01*
X151751186Y-124936389D01*
X151750452Y-124935291D01*
X151736660Y-124944507D01*
X151734664Y-124944638D01*
X151733553Y-124942975D01*
X151733886Y-124941733D01*
X151741233Y-124930738D01*
X151745000Y-124911801D01*
X151745000Y-124262199D01*
X151741233Y-124243262D01*
X151733886Y-124232267D01*
X151733755Y-124230271D01*
X151735418Y-124229160D01*
X151736660Y-124229493D01*
G37*
G36*
X152386660Y-124229493D02*
G01*
X152400452Y-124238709D01*
X152401615Y-124236969D01*
X152403409Y-124236084D01*
X152404560Y-124236545D01*
X152421952Y-124251078D01*
X152490670Y-124259704D01*
X152538288Y-124236918D01*
X152540282Y-124237072D01*
X152540814Y-124237611D01*
X152541548Y-124238709D01*
X152555340Y-124229493D01*
X152557336Y-124229362D01*
X152558447Y-124231025D01*
X152558114Y-124232267D01*
X152550767Y-124243262D01*
X152547000Y-124262199D01*
X152547000Y-124911801D01*
X152550767Y-124930738D01*
X152558114Y-124941733D01*
X152558245Y-124943729D01*
X152556582Y-124944840D01*
X152555340Y-124944507D01*
X152541548Y-124935291D01*
X152540385Y-124937031D01*
X152538591Y-124937916D01*
X152537440Y-124937455D01*
X152520048Y-124922922D01*
X152451330Y-124914296D01*
X152403712Y-124937082D01*
X152401718Y-124936928D01*
X152401186Y-124936389D01*
X152400452Y-124935291D01*
X152386660Y-124944507D01*
X152384664Y-124944638D01*
X152383553Y-124942975D01*
X152383886Y-124941733D01*
X152391233Y-124930738D01*
X152395000Y-124911801D01*
X152395000Y-124262199D01*
X152391233Y-124243262D01*
X152383886Y-124232267D01*
X152383755Y-124230271D01*
X152385418Y-124229160D01*
X152386660Y-124229493D01*
G37*
G36*
X165693693Y-122794460D02*
G01*
X165706425Y-122802967D01*
X165772789Y-122823747D01*
X165843589Y-122802958D01*
X165856307Y-122794460D01*
X165858303Y-122794329D01*
X165859414Y-122795992D01*
X165859081Y-122797234D01*
X165835476Y-122832561D01*
X165826000Y-122880199D01*
X165826000Y-124204801D01*
X165835476Y-124252439D01*
X165859081Y-124287766D01*
X165859212Y-124289762D01*
X165857549Y-124290873D01*
X165856307Y-124290540D01*
X165843575Y-124282033D01*
X165777211Y-124261253D01*
X165706411Y-124282042D01*
X165693693Y-124290540D01*
X165691697Y-124290671D01*
X165690586Y-124289008D01*
X165690919Y-124287766D01*
X165714524Y-124252439D01*
X165724000Y-124204801D01*
X165724000Y-122880199D01*
X165714524Y-122832561D01*
X165690919Y-122797234D01*
X165690788Y-122795238D01*
X165692451Y-122794127D01*
X165693693Y-122794460D01*
G37*
G36*
X168193693Y-122794460D02*
G01*
X168206425Y-122802967D01*
X168272789Y-122823747D01*
X168343589Y-122802958D01*
X168356307Y-122794460D01*
X168358303Y-122794329D01*
X168359414Y-122795992D01*
X168359081Y-122797234D01*
X168335476Y-122832561D01*
X168326000Y-122880199D01*
X168326000Y-124204801D01*
X168335476Y-124252439D01*
X168359081Y-124287766D01*
X168359212Y-124289762D01*
X168357549Y-124290873D01*
X168356307Y-124290540D01*
X168343575Y-124282033D01*
X168277211Y-124261253D01*
X168206411Y-124282042D01*
X168193693Y-124290540D01*
X168191697Y-124290671D01*
X168190586Y-124289008D01*
X168190919Y-124287766D01*
X168214524Y-124252439D01*
X168224000Y-124204801D01*
X168224000Y-122880199D01*
X168214524Y-122832561D01*
X168190919Y-122797234D01*
X168190788Y-122795238D01*
X168192451Y-122794127D01*
X168193693Y-122794460D01*
G37*
G36*
X167693693Y-122794460D02*
G01*
X167706425Y-122802967D01*
X167772789Y-122823747D01*
X167843589Y-122802958D01*
X167856307Y-122794460D01*
X167858303Y-122794329D01*
X167859414Y-122795992D01*
X167859081Y-122797234D01*
X167835476Y-122832561D01*
X167826000Y-122880199D01*
X167826000Y-124204801D01*
X167835476Y-124252439D01*
X167859081Y-124287766D01*
X167859212Y-124289762D01*
X167857549Y-124290873D01*
X167856307Y-124290540D01*
X167843575Y-124282033D01*
X167777211Y-124261253D01*
X167706411Y-124282042D01*
X167693693Y-124290540D01*
X167691697Y-124290671D01*
X167690586Y-124289008D01*
X167690919Y-124287766D01*
X167714524Y-124252439D01*
X167724000Y-124204801D01*
X167724000Y-122880199D01*
X167714524Y-122832561D01*
X167690919Y-122797234D01*
X167690788Y-122795238D01*
X167692451Y-122794127D01*
X167693693Y-122794460D01*
G37*
G36*
X170193693Y-122794460D02*
G01*
X170206425Y-122802967D01*
X170272789Y-122823747D01*
X170343589Y-122802958D01*
X170356307Y-122794460D01*
X170358303Y-122794329D01*
X170359414Y-122795992D01*
X170359081Y-122797234D01*
X170335476Y-122832561D01*
X170326000Y-122880199D01*
X170326000Y-124204801D01*
X170335476Y-124252439D01*
X170359081Y-124287766D01*
X170359212Y-124289762D01*
X170357549Y-124290873D01*
X170356307Y-124290540D01*
X170343575Y-124282033D01*
X170277211Y-124261253D01*
X170206411Y-124282042D01*
X170193693Y-124290540D01*
X170191697Y-124290671D01*
X170190586Y-124289008D01*
X170190919Y-124287766D01*
X170214524Y-124252439D01*
X170224000Y-124204801D01*
X170224000Y-122880199D01*
X170214524Y-122832561D01*
X170190919Y-122797234D01*
X170190788Y-122795238D01*
X170192451Y-122794127D01*
X170193693Y-122794460D01*
G37*
G36*
X166193693Y-122794460D02*
G01*
X166206425Y-122802967D01*
X166272789Y-122823747D01*
X166343589Y-122802958D01*
X166356307Y-122794460D01*
X166358303Y-122794329D01*
X166359414Y-122795992D01*
X166359081Y-122797234D01*
X166335476Y-122832561D01*
X166326000Y-122880199D01*
X166326000Y-124204801D01*
X166335476Y-124252439D01*
X166359081Y-124287766D01*
X166359212Y-124289762D01*
X166357549Y-124290873D01*
X166356307Y-124290540D01*
X166343575Y-124282033D01*
X166277211Y-124261253D01*
X166206411Y-124282042D01*
X166193693Y-124290540D01*
X166191697Y-124290671D01*
X166190586Y-124289008D01*
X166190919Y-124287766D01*
X166214524Y-124252439D01*
X166224000Y-124204801D01*
X166224000Y-122880199D01*
X166214524Y-122832561D01*
X166190919Y-122797234D01*
X166190788Y-122795238D01*
X166192451Y-122794127D01*
X166193693Y-122794460D01*
G37*
G36*
X168693693Y-122794460D02*
G01*
X168706425Y-122802967D01*
X168772789Y-122823747D01*
X168843589Y-122802958D01*
X168856307Y-122794460D01*
X168858303Y-122794329D01*
X168859414Y-122795992D01*
X168859081Y-122797234D01*
X168835476Y-122832561D01*
X168826000Y-122880199D01*
X168826000Y-124204801D01*
X168835476Y-124252439D01*
X168859081Y-124287766D01*
X168859212Y-124289762D01*
X168857549Y-124290873D01*
X168856307Y-124290540D01*
X168843575Y-124282033D01*
X168777211Y-124261253D01*
X168706411Y-124282042D01*
X168693693Y-124290540D01*
X168691697Y-124290671D01*
X168690586Y-124289008D01*
X168690919Y-124287766D01*
X168714524Y-124252439D01*
X168724000Y-124204801D01*
X168724000Y-122880199D01*
X168714524Y-122832561D01*
X168690919Y-122797234D01*
X168690788Y-122795238D01*
X168692451Y-122794127D01*
X168693693Y-122794460D01*
G37*
G36*
X170693693Y-122794460D02*
G01*
X170706425Y-122802967D01*
X170772789Y-122823747D01*
X170843589Y-122802958D01*
X170856307Y-122794460D01*
X170858303Y-122794329D01*
X170859414Y-122795992D01*
X170859081Y-122797234D01*
X170835476Y-122832561D01*
X170826000Y-122880199D01*
X170826000Y-124204801D01*
X170835476Y-124252439D01*
X170859081Y-124287766D01*
X170859212Y-124289762D01*
X170857549Y-124290873D01*
X170856307Y-124290540D01*
X170843575Y-124282033D01*
X170777211Y-124261253D01*
X170706411Y-124282042D01*
X170693693Y-124290540D01*
X170691697Y-124290671D01*
X170690586Y-124289008D01*
X170690919Y-124287766D01*
X170714524Y-124252439D01*
X170724000Y-124204801D01*
X170724000Y-122880199D01*
X170714524Y-122832561D01*
X170690919Y-122797234D01*
X170690788Y-122795238D01*
X170692451Y-122794127D01*
X170693693Y-122794460D01*
G37*
G36*
X166693693Y-122794460D02*
G01*
X166706425Y-122802967D01*
X166772789Y-122823747D01*
X166843589Y-122802958D01*
X166856307Y-122794460D01*
X166858303Y-122794329D01*
X166859414Y-122795992D01*
X166859081Y-122797234D01*
X166835476Y-122832561D01*
X166826000Y-122880199D01*
X166826000Y-124204801D01*
X166835476Y-124252439D01*
X166859081Y-124287766D01*
X166859212Y-124289762D01*
X166857549Y-124290873D01*
X166856307Y-124290540D01*
X166843575Y-124282033D01*
X166777211Y-124261253D01*
X166706411Y-124282042D01*
X166693693Y-124290540D01*
X166691697Y-124290671D01*
X166690586Y-124289008D01*
X166690919Y-124287766D01*
X166714524Y-124252439D01*
X166724000Y-124204801D01*
X166724000Y-122880199D01*
X166714524Y-122832561D01*
X166690919Y-122797234D01*
X166690788Y-122795238D01*
X166692451Y-122794127D01*
X166693693Y-122794460D01*
G37*
G36*
X169193693Y-122794460D02*
G01*
X169206425Y-122802967D01*
X169272789Y-122823747D01*
X169343589Y-122802958D01*
X169356307Y-122794460D01*
X169358303Y-122794329D01*
X169359414Y-122795992D01*
X169359081Y-122797234D01*
X169335476Y-122832561D01*
X169326000Y-122880199D01*
X169326000Y-124204801D01*
X169335476Y-124252439D01*
X169359081Y-124287766D01*
X169359212Y-124289762D01*
X169357549Y-124290873D01*
X169356307Y-124290540D01*
X169343575Y-124282033D01*
X169277211Y-124261253D01*
X169206411Y-124282042D01*
X169193693Y-124290540D01*
X169191697Y-124290671D01*
X169190586Y-124289008D01*
X169190919Y-124287766D01*
X169214524Y-124252439D01*
X169224000Y-124204801D01*
X169224000Y-122880199D01*
X169214524Y-122832561D01*
X169190919Y-122797234D01*
X169190788Y-122795238D01*
X169192451Y-122794127D01*
X169193693Y-122794460D01*
G37*
G36*
X169693693Y-122794460D02*
G01*
X169706425Y-122802967D01*
X169772789Y-122823747D01*
X169843589Y-122802958D01*
X169856307Y-122794460D01*
X169858303Y-122794329D01*
X169859414Y-122795992D01*
X169859081Y-122797234D01*
X169835476Y-122832561D01*
X169826000Y-122880199D01*
X169826000Y-124204801D01*
X169835476Y-124252439D01*
X169859081Y-124287766D01*
X169859212Y-124289762D01*
X169857549Y-124290873D01*
X169856307Y-124290540D01*
X169843575Y-124282033D01*
X169777211Y-124261253D01*
X169706411Y-124282042D01*
X169693693Y-124290540D01*
X169691697Y-124290671D01*
X169690586Y-124289008D01*
X169690919Y-124287766D01*
X169714524Y-124252439D01*
X169724000Y-124204801D01*
X169724000Y-122880199D01*
X169714524Y-122832561D01*
X169690919Y-122797234D01*
X169690788Y-122795238D01*
X169692451Y-122794127D01*
X169693693Y-122794460D01*
G37*
G36*
X167193693Y-122794460D02*
G01*
X167206425Y-122802967D01*
X167272789Y-122823747D01*
X167343589Y-122802958D01*
X167356307Y-122794460D01*
X167358303Y-122794329D01*
X167359414Y-122795992D01*
X167359081Y-122797234D01*
X167335476Y-122832561D01*
X167326000Y-122880199D01*
X167326000Y-124204801D01*
X167335476Y-124252439D01*
X167359081Y-124287766D01*
X167359212Y-124289762D01*
X167357549Y-124290873D01*
X167356307Y-124290540D01*
X167343575Y-124282033D01*
X167277211Y-124261253D01*
X167206411Y-124282042D01*
X167193693Y-124290540D01*
X167191697Y-124290671D01*
X167190586Y-124289008D01*
X167190919Y-124287766D01*
X167214524Y-124252439D01*
X167224000Y-124204801D01*
X167224000Y-122880199D01*
X167214524Y-122832561D01*
X167190919Y-122797234D01*
X167190788Y-122795238D01*
X167192451Y-122794127D01*
X167193693Y-122794460D01*
G37*
G36*
X152386660Y-122329493D02*
G01*
X152400452Y-122338709D01*
X152401615Y-122336969D01*
X152403409Y-122336084D01*
X152404560Y-122336545D01*
X152421952Y-122351078D01*
X152490670Y-122359704D01*
X152538288Y-122336918D01*
X152540282Y-122337072D01*
X152540814Y-122337611D01*
X152541548Y-122338709D01*
X152555340Y-122329493D01*
X152557336Y-122329362D01*
X152558447Y-122331025D01*
X152558114Y-122332267D01*
X152550767Y-122343262D01*
X152547000Y-122362199D01*
X152547000Y-123011801D01*
X152550767Y-123030738D01*
X152558114Y-123041733D01*
X152558245Y-123043729D01*
X152556582Y-123044840D01*
X152555340Y-123044507D01*
X152541548Y-123035291D01*
X152540385Y-123037031D01*
X152538591Y-123037916D01*
X152537440Y-123037455D01*
X152520048Y-123022922D01*
X152451330Y-123014296D01*
X152403712Y-123037082D01*
X152401718Y-123036928D01*
X152401186Y-123036389D01*
X152400452Y-123035291D01*
X152386660Y-123044507D01*
X152384664Y-123044638D01*
X152383553Y-123042975D01*
X152383886Y-123041733D01*
X152391233Y-123030738D01*
X152395000Y-123011801D01*
X152395000Y-122362199D01*
X152391233Y-122343262D01*
X152383886Y-122332267D01*
X152383755Y-122330271D01*
X152385418Y-122329160D01*
X152386660Y-122329493D01*
G37*
G36*
X151736660Y-122329493D02*
G01*
X151750452Y-122338709D01*
X151751615Y-122336969D01*
X151753409Y-122336084D01*
X151754560Y-122336545D01*
X151771952Y-122351078D01*
X151840670Y-122359704D01*
X151888288Y-122336918D01*
X151890282Y-122337072D01*
X151890814Y-122337611D01*
X151891548Y-122338709D01*
X151905340Y-122329493D01*
X151907336Y-122329362D01*
X151908447Y-122331025D01*
X151908114Y-122332267D01*
X151900767Y-122343262D01*
X151897000Y-122362199D01*
X151897000Y-123011801D01*
X151900767Y-123030738D01*
X151908114Y-123041733D01*
X151908245Y-123043729D01*
X151906582Y-123044840D01*
X151905340Y-123044507D01*
X151891548Y-123035291D01*
X151890385Y-123037031D01*
X151888591Y-123037916D01*
X151887440Y-123037455D01*
X151870048Y-123022922D01*
X151801330Y-123014296D01*
X151753712Y-123037082D01*
X151751718Y-123036928D01*
X151751186Y-123036389D01*
X151750452Y-123035291D01*
X151736660Y-123044507D01*
X151734664Y-123044638D01*
X151733553Y-123042975D01*
X151733886Y-123041733D01*
X151741233Y-123030738D01*
X151745000Y-123011801D01*
X151745000Y-122362199D01*
X151741233Y-122343262D01*
X151733886Y-122332267D01*
X151733755Y-122330271D01*
X151735418Y-122329160D01*
X151736660Y-122329493D01*
G37*
G36*
X163367234Y-121795919D02*
G01*
X163402561Y-121819524D01*
X163450199Y-121829000D01*
X164774801Y-121829000D01*
X164822439Y-121819524D01*
X164857766Y-121795919D01*
X164859762Y-121795788D01*
X164860873Y-121797451D01*
X164860540Y-121798693D01*
X164852033Y-121811425D01*
X164831253Y-121877789D01*
X164852042Y-121948589D01*
X164860540Y-121961307D01*
X164860671Y-121963303D01*
X164859008Y-121964414D01*
X164857766Y-121964081D01*
X164822439Y-121940476D01*
X164774801Y-121931000D01*
X163450199Y-121931000D01*
X163402561Y-121940476D01*
X163367234Y-121964081D01*
X163365238Y-121964212D01*
X163364127Y-121962549D01*
X163364460Y-121961307D01*
X163372967Y-121948575D01*
X163393747Y-121882211D01*
X163372958Y-121811411D01*
X163364460Y-121798693D01*
X163364329Y-121796697D01*
X163365992Y-121795586D01*
X163367234Y-121795919D01*
G37*
G36*
X171692234Y-121795919D02*
G01*
X171727561Y-121819524D01*
X171775199Y-121829000D01*
X173099801Y-121829000D01*
X173147439Y-121819524D01*
X173182766Y-121795919D01*
X173184762Y-121795788D01*
X173185873Y-121797451D01*
X173185540Y-121798693D01*
X173177033Y-121811425D01*
X173156253Y-121877789D01*
X173177042Y-121948589D01*
X173185540Y-121961307D01*
X173185671Y-121963303D01*
X173184008Y-121964414D01*
X173182766Y-121964081D01*
X173147439Y-121940476D01*
X173099801Y-121931000D01*
X171775199Y-121931000D01*
X171727561Y-121940476D01*
X171692234Y-121964081D01*
X171690238Y-121964212D01*
X171689127Y-121962549D01*
X171689460Y-121961307D01*
X171697967Y-121948575D01*
X171718747Y-121882211D01*
X171697958Y-121811411D01*
X171689460Y-121798693D01*
X171689329Y-121796697D01*
X171690992Y-121795586D01*
X171692234Y-121795919D01*
G37*
G36*
X163367234Y-121295919D02*
G01*
X163402561Y-121319524D01*
X163450199Y-121329000D01*
X164774801Y-121329000D01*
X164822439Y-121319524D01*
X164857766Y-121295919D01*
X164859762Y-121295788D01*
X164860873Y-121297451D01*
X164860540Y-121298693D01*
X164852033Y-121311425D01*
X164831253Y-121377789D01*
X164852042Y-121448589D01*
X164860540Y-121461307D01*
X164860671Y-121463303D01*
X164859008Y-121464414D01*
X164857766Y-121464081D01*
X164822439Y-121440476D01*
X164774801Y-121431000D01*
X163450199Y-121431000D01*
X163402561Y-121440476D01*
X163367234Y-121464081D01*
X163365238Y-121464212D01*
X163364127Y-121462549D01*
X163364460Y-121461307D01*
X163372967Y-121448575D01*
X163393747Y-121382211D01*
X163372958Y-121311411D01*
X163364460Y-121298693D01*
X163364329Y-121296697D01*
X163365992Y-121295586D01*
X163367234Y-121295919D01*
G37*
G36*
X171692234Y-121295919D02*
G01*
X171727561Y-121319524D01*
X171775199Y-121329000D01*
X173099801Y-121329000D01*
X173147439Y-121319524D01*
X173182766Y-121295919D01*
X173184762Y-121295788D01*
X173185873Y-121297451D01*
X173185540Y-121298693D01*
X173177033Y-121311425D01*
X173156253Y-121377789D01*
X173177042Y-121448589D01*
X173185540Y-121461307D01*
X173185671Y-121463303D01*
X173184008Y-121464414D01*
X173182766Y-121464081D01*
X173147439Y-121440476D01*
X173099801Y-121431000D01*
X171775199Y-121431000D01*
X171727561Y-121440476D01*
X171692234Y-121464081D01*
X171690238Y-121464212D01*
X171689127Y-121462549D01*
X171689460Y-121461307D01*
X171697967Y-121448575D01*
X171718747Y-121382211D01*
X171697958Y-121311411D01*
X171689460Y-121298693D01*
X171689329Y-121296697D01*
X171690992Y-121295586D01*
X171692234Y-121295919D01*
G37*
G36*
X163367234Y-120795919D02*
G01*
X163402561Y-120819524D01*
X163450199Y-120829000D01*
X164774801Y-120829000D01*
X164822439Y-120819524D01*
X164857766Y-120795919D01*
X164859762Y-120795788D01*
X164860873Y-120797451D01*
X164860540Y-120798693D01*
X164852033Y-120811425D01*
X164831253Y-120877789D01*
X164852042Y-120948589D01*
X164860540Y-120961307D01*
X164860671Y-120963303D01*
X164859008Y-120964414D01*
X164857766Y-120964081D01*
X164822439Y-120940476D01*
X164774801Y-120931000D01*
X163450199Y-120931000D01*
X163402561Y-120940476D01*
X163367234Y-120964081D01*
X163365238Y-120964212D01*
X163364127Y-120962549D01*
X163364460Y-120961307D01*
X163372967Y-120948575D01*
X163393747Y-120882211D01*
X163372958Y-120811411D01*
X163364460Y-120798693D01*
X163364329Y-120796697D01*
X163365992Y-120795586D01*
X163367234Y-120795919D01*
G37*
G36*
X171692234Y-120795919D02*
G01*
X171727561Y-120819524D01*
X171775199Y-120829000D01*
X173099801Y-120829000D01*
X173147439Y-120819524D01*
X173182766Y-120795919D01*
X173184762Y-120795788D01*
X173185873Y-120797451D01*
X173185540Y-120798693D01*
X173177033Y-120811425D01*
X173156253Y-120877789D01*
X173177042Y-120948589D01*
X173185540Y-120961307D01*
X173185671Y-120963303D01*
X173184008Y-120964414D01*
X173182766Y-120964081D01*
X173147439Y-120940476D01*
X173099801Y-120931000D01*
X171775199Y-120931000D01*
X171727561Y-120940476D01*
X171692234Y-120964081D01*
X171690238Y-120964212D01*
X171689127Y-120962549D01*
X171689460Y-120961307D01*
X171697967Y-120948575D01*
X171718747Y-120882211D01*
X171697958Y-120811411D01*
X171689460Y-120798693D01*
X171689329Y-120796697D01*
X171690992Y-120795586D01*
X171692234Y-120795919D01*
G37*
G36*
X163367234Y-120295919D02*
G01*
X163402561Y-120319524D01*
X163450199Y-120329000D01*
X164774801Y-120329000D01*
X164822439Y-120319524D01*
X164857766Y-120295919D01*
X164859762Y-120295788D01*
X164860873Y-120297451D01*
X164860540Y-120298693D01*
X164852033Y-120311425D01*
X164831253Y-120377789D01*
X164852042Y-120448589D01*
X164860540Y-120461307D01*
X164860671Y-120463303D01*
X164859008Y-120464414D01*
X164857766Y-120464081D01*
X164822439Y-120440476D01*
X164774801Y-120431000D01*
X163450199Y-120431000D01*
X163402561Y-120440476D01*
X163367234Y-120464081D01*
X163365238Y-120464212D01*
X163364127Y-120462549D01*
X163364460Y-120461307D01*
X163372967Y-120448575D01*
X163393747Y-120382211D01*
X163372958Y-120311411D01*
X163364460Y-120298693D01*
X163364329Y-120296697D01*
X163365992Y-120295586D01*
X163367234Y-120295919D01*
G37*
G36*
X171692234Y-120295919D02*
G01*
X171727561Y-120319524D01*
X171775199Y-120329000D01*
X173099801Y-120329000D01*
X173147439Y-120319524D01*
X173182766Y-120295919D01*
X173184762Y-120295788D01*
X173185873Y-120297451D01*
X173185540Y-120298693D01*
X173177033Y-120311425D01*
X173156253Y-120377789D01*
X173177042Y-120448589D01*
X173185540Y-120461307D01*
X173185671Y-120463303D01*
X173184008Y-120464414D01*
X173182766Y-120464081D01*
X173147439Y-120440476D01*
X173099801Y-120431000D01*
X171775199Y-120431000D01*
X171727561Y-120440476D01*
X171692234Y-120464081D01*
X171690238Y-120464212D01*
X171689127Y-120462549D01*
X171689460Y-120461307D01*
X171697967Y-120448575D01*
X171718747Y-120382211D01*
X171697958Y-120311411D01*
X171689460Y-120298693D01*
X171689329Y-120296697D01*
X171690992Y-120295586D01*
X171692234Y-120295919D01*
G37*
G36*
X163367234Y-119795919D02*
G01*
X163402561Y-119819524D01*
X163450199Y-119829000D01*
X164774801Y-119829000D01*
X164822439Y-119819524D01*
X164857766Y-119795919D01*
X164859762Y-119795788D01*
X164860873Y-119797451D01*
X164860540Y-119798693D01*
X164852033Y-119811425D01*
X164831253Y-119877789D01*
X164852042Y-119948589D01*
X164860540Y-119961307D01*
X164860671Y-119963303D01*
X164859008Y-119964414D01*
X164857766Y-119964081D01*
X164822439Y-119940476D01*
X164774801Y-119931000D01*
X163450199Y-119931000D01*
X163402561Y-119940476D01*
X163367234Y-119964081D01*
X163365238Y-119964212D01*
X163364127Y-119962549D01*
X163364460Y-119961307D01*
X163372967Y-119948575D01*
X163393747Y-119882211D01*
X163372958Y-119811411D01*
X163364460Y-119798693D01*
X163364329Y-119796697D01*
X163365992Y-119795586D01*
X163367234Y-119795919D01*
G37*
G36*
X171692234Y-119795919D02*
G01*
X171727561Y-119819524D01*
X171775199Y-119829000D01*
X173099801Y-119829000D01*
X173147439Y-119819524D01*
X173182766Y-119795919D01*
X173184762Y-119795788D01*
X173185873Y-119797451D01*
X173185540Y-119798693D01*
X173177033Y-119811425D01*
X173156253Y-119877789D01*
X173177042Y-119948589D01*
X173185540Y-119961307D01*
X173185671Y-119963303D01*
X173184008Y-119964414D01*
X173182766Y-119964081D01*
X173147439Y-119940476D01*
X173099801Y-119931000D01*
X171775199Y-119931000D01*
X171727561Y-119940476D01*
X171692234Y-119964081D01*
X171690238Y-119964212D01*
X171689127Y-119962549D01*
X171689460Y-119961307D01*
X171697967Y-119948575D01*
X171718747Y-119882211D01*
X171697958Y-119811411D01*
X171689460Y-119798693D01*
X171689329Y-119796697D01*
X171690992Y-119795586D01*
X171692234Y-119795919D01*
G37*
G36*
X171692234Y-119295919D02*
G01*
X171727561Y-119319524D01*
X171775199Y-119329000D01*
X173099801Y-119329000D01*
X173147439Y-119319524D01*
X173182766Y-119295919D01*
X173184762Y-119295788D01*
X173185873Y-119297451D01*
X173185540Y-119298693D01*
X173177033Y-119311425D01*
X173156253Y-119377789D01*
X173177042Y-119448589D01*
X173185540Y-119461307D01*
X173185671Y-119463303D01*
X173184008Y-119464414D01*
X173182766Y-119464081D01*
X173147439Y-119440476D01*
X173099801Y-119431000D01*
X171775199Y-119431000D01*
X171727561Y-119440476D01*
X171692234Y-119464081D01*
X171690238Y-119464212D01*
X171689127Y-119462549D01*
X171689460Y-119461307D01*
X171697967Y-119448575D01*
X171718747Y-119382211D01*
X171697958Y-119311411D01*
X171689460Y-119298693D01*
X171689329Y-119296697D01*
X171690992Y-119295586D01*
X171692234Y-119295919D01*
G37*
G36*
X163367234Y-119295919D02*
G01*
X163402561Y-119319524D01*
X163450199Y-119329000D01*
X164774801Y-119329000D01*
X164822439Y-119319524D01*
X164857766Y-119295919D01*
X164859762Y-119295788D01*
X164860873Y-119297451D01*
X164860540Y-119298693D01*
X164852033Y-119311425D01*
X164831253Y-119377789D01*
X164852042Y-119448589D01*
X164860540Y-119461307D01*
X164860671Y-119463303D01*
X164859008Y-119464414D01*
X164857766Y-119464081D01*
X164822439Y-119440476D01*
X164774801Y-119431000D01*
X163450199Y-119431000D01*
X163402561Y-119440476D01*
X163367234Y-119464081D01*
X163365238Y-119464212D01*
X163364127Y-119462549D01*
X163364460Y-119461307D01*
X163372967Y-119448575D01*
X163393747Y-119382211D01*
X163372958Y-119311411D01*
X163364460Y-119298693D01*
X163364329Y-119296697D01*
X163365992Y-119295586D01*
X163367234Y-119295919D01*
G37*
G36*
X163367234Y-118795919D02*
G01*
X163402561Y-118819524D01*
X163450199Y-118829000D01*
X164774801Y-118829000D01*
X164822439Y-118819524D01*
X164857766Y-118795919D01*
X164859762Y-118795788D01*
X164860873Y-118797451D01*
X164860540Y-118798693D01*
X164852033Y-118811425D01*
X164831253Y-118877789D01*
X164852042Y-118948589D01*
X164860540Y-118961307D01*
X164860671Y-118963303D01*
X164859008Y-118964414D01*
X164857766Y-118964081D01*
X164822439Y-118940476D01*
X164774801Y-118931000D01*
X163450199Y-118931000D01*
X163402561Y-118940476D01*
X163367234Y-118964081D01*
X163365238Y-118964212D01*
X163364127Y-118962549D01*
X163364460Y-118961307D01*
X163372967Y-118948575D01*
X163393747Y-118882211D01*
X163372958Y-118811411D01*
X163364460Y-118798693D01*
X163364329Y-118796697D01*
X163365992Y-118795586D01*
X163367234Y-118795919D01*
G37*
G36*
X171692234Y-118795919D02*
G01*
X171727561Y-118819524D01*
X171775199Y-118829000D01*
X173099801Y-118829000D01*
X173147439Y-118819524D01*
X173182766Y-118795919D01*
X173184762Y-118795788D01*
X173185873Y-118797451D01*
X173185540Y-118798693D01*
X173177033Y-118811425D01*
X173156253Y-118877789D01*
X173177042Y-118948589D01*
X173185540Y-118961307D01*
X173185671Y-118963303D01*
X173184008Y-118964414D01*
X173182766Y-118964081D01*
X173147439Y-118940476D01*
X173099801Y-118931000D01*
X171775199Y-118931000D01*
X171727561Y-118940476D01*
X171692234Y-118964081D01*
X171690238Y-118964212D01*
X171689127Y-118962549D01*
X171689460Y-118961307D01*
X171697967Y-118948575D01*
X171718747Y-118882211D01*
X171697958Y-118811411D01*
X171689460Y-118798693D01*
X171689329Y-118796697D01*
X171690992Y-118795586D01*
X171692234Y-118795919D01*
G37*
G36*
X163367234Y-118295919D02*
G01*
X163402561Y-118319524D01*
X163450199Y-118329000D01*
X164774801Y-118329000D01*
X164822439Y-118319524D01*
X164857766Y-118295919D01*
X164859762Y-118295788D01*
X164860873Y-118297451D01*
X164860540Y-118298693D01*
X164852033Y-118311425D01*
X164831253Y-118377789D01*
X164852042Y-118448589D01*
X164860540Y-118461307D01*
X164860671Y-118463303D01*
X164859008Y-118464414D01*
X164857766Y-118464081D01*
X164822439Y-118440476D01*
X164774801Y-118431000D01*
X163450199Y-118431000D01*
X163402561Y-118440476D01*
X163367234Y-118464081D01*
X163365238Y-118464212D01*
X163364127Y-118462549D01*
X163364460Y-118461307D01*
X163372967Y-118448575D01*
X163393747Y-118382211D01*
X163372958Y-118311411D01*
X163364460Y-118298693D01*
X163364329Y-118296697D01*
X163365992Y-118295586D01*
X163367234Y-118295919D01*
G37*
G36*
X171692234Y-118295919D02*
G01*
X171727561Y-118319524D01*
X171775199Y-118329000D01*
X173099801Y-118329000D01*
X173147439Y-118319524D01*
X173182766Y-118295919D01*
X173184762Y-118295788D01*
X173185873Y-118297451D01*
X173185540Y-118298693D01*
X173177033Y-118311425D01*
X173156253Y-118377789D01*
X173177042Y-118448589D01*
X173185540Y-118461307D01*
X173185671Y-118463303D01*
X173184008Y-118464414D01*
X173182766Y-118464081D01*
X173147439Y-118440476D01*
X173099801Y-118431000D01*
X171775199Y-118431000D01*
X171727561Y-118440476D01*
X171692234Y-118464081D01*
X171690238Y-118464212D01*
X171689127Y-118462549D01*
X171689460Y-118461307D01*
X171697967Y-118448575D01*
X171718747Y-118382211D01*
X171697958Y-118311411D01*
X171689460Y-118298693D01*
X171689329Y-118296697D01*
X171690992Y-118295586D01*
X171692234Y-118295919D01*
G37*
G36*
X163367234Y-117795919D02*
G01*
X163402561Y-117819524D01*
X163450199Y-117829000D01*
X164774801Y-117829000D01*
X164822439Y-117819524D01*
X164857766Y-117795919D01*
X164859762Y-117795788D01*
X164860873Y-117797451D01*
X164860540Y-117798693D01*
X164852033Y-117811425D01*
X164831253Y-117877789D01*
X164852042Y-117948589D01*
X164860540Y-117961307D01*
X164860671Y-117963303D01*
X164859008Y-117964414D01*
X164857766Y-117964081D01*
X164822439Y-117940476D01*
X164774801Y-117931000D01*
X163450199Y-117931000D01*
X163402561Y-117940476D01*
X163367234Y-117964081D01*
X163365238Y-117964212D01*
X163364127Y-117962549D01*
X163364460Y-117961307D01*
X163372967Y-117948575D01*
X163393747Y-117882211D01*
X163372958Y-117811411D01*
X163364460Y-117798693D01*
X163364329Y-117796697D01*
X163365992Y-117795586D01*
X163367234Y-117795919D01*
G37*
G36*
X171692234Y-117795919D02*
G01*
X171727561Y-117819524D01*
X171775199Y-117829000D01*
X173099801Y-117829000D01*
X173147439Y-117819524D01*
X173182766Y-117795919D01*
X173184762Y-117795788D01*
X173185873Y-117797451D01*
X173185540Y-117798693D01*
X173177033Y-117811425D01*
X173156253Y-117877789D01*
X173177042Y-117948589D01*
X173185540Y-117961307D01*
X173185671Y-117963303D01*
X173184008Y-117964414D01*
X173182766Y-117964081D01*
X173147439Y-117940476D01*
X173099801Y-117931000D01*
X171775199Y-117931000D01*
X171727561Y-117940476D01*
X171692234Y-117964081D01*
X171690238Y-117964212D01*
X171689127Y-117962549D01*
X171689460Y-117961307D01*
X171697967Y-117948575D01*
X171718747Y-117882211D01*
X171697958Y-117811411D01*
X171689460Y-117798693D01*
X171689329Y-117796697D01*
X171690992Y-117795586D01*
X171692234Y-117795919D01*
G37*
G36*
X171692234Y-117295919D02*
G01*
X171727561Y-117319524D01*
X171775199Y-117329000D01*
X173099801Y-117329000D01*
X173147439Y-117319524D01*
X173182766Y-117295919D01*
X173184762Y-117295788D01*
X173185873Y-117297451D01*
X173185540Y-117298693D01*
X173177033Y-117311425D01*
X173156253Y-117377789D01*
X173177042Y-117448589D01*
X173185540Y-117461307D01*
X173185671Y-117463303D01*
X173184008Y-117464414D01*
X173182766Y-117464081D01*
X173147439Y-117440476D01*
X173099801Y-117431000D01*
X171775199Y-117431000D01*
X171727561Y-117440476D01*
X171692234Y-117464081D01*
X171690238Y-117464212D01*
X171689127Y-117462549D01*
X171689460Y-117461307D01*
X171697967Y-117448575D01*
X171718747Y-117382211D01*
X171697958Y-117311411D01*
X171689460Y-117298693D01*
X171689329Y-117296697D01*
X171690992Y-117295586D01*
X171692234Y-117295919D01*
G37*
G36*
X163367234Y-117295919D02*
G01*
X163402561Y-117319524D01*
X163450199Y-117329000D01*
X164774801Y-117329000D01*
X164822439Y-117319524D01*
X164857766Y-117295919D01*
X164859762Y-117295788D01*
X164860873Y-117297451D01*
X164860540Y-117298693D01*
X164852033Y-117311425D01*
X164831253Y-117377789D01*
X164852042Y-117448589D01*
X164860540Y-117461307D01*
X164860671Y-117463303D01*
X164859008Y-117464414D01*
X164857766Y-117464081D01*
X164822439Y-117440476D01*
X164774801Y-117431000D01*
X163450199Y-117431000D01*
X163402561Y-117440476D01*
X163367234Y-117464081D01*
X163365238Y-117464212D01*
X163364127Y-117462549D01*
X163364460Y-117461307D01*
X163372967Y-117448575D01*
X163393747Y-117382211D01*
X163372958Y-117311411D01*
X163364460Y-117298693D01*
X163364329Y-117296697D01*
X163365992Y-117295586D01*
X163367234Y-117295919D01*
G37*
G36*
X163367234Y-116795919D02*
G01*
X163402561Y-116819524D01*
X163450199Y-116829000D01*
X164774801Y-116829000D01*
X164822439Y-116819524D01*
X164857766Y-116795919D01*
X164859762Y-116795788D01*
X164860873Y-116797451D01*
X164860540Y-116798693D01*
X164852033Y-116811425D01*
X164831253Y-116877789D01*
X164852042Y-116948589D01*
X164860540Y-116961307D01*
X164860671Y-116963303D01*
X164859008Y-116964414D01*
X164857766Y-116964081D01*
X164822439Y-116940476D01*
X164774801Y-116931000D01*
X163450199Y-116931000D01*
X163402561Y-116940476D01*
X163367234Y-116964081D01*
X163365238Y-116964212D01*
X163364127Y-116962549D01*
X163364460Y-116961307D01*
X163372967Y-116948575D01*
X163393747Y-116882211D01*
X163372958Y-116811411D01*
X163364460Y-116798693D01*
X163364329Y-116796697D01*
X163365992Y-116795586D01*
X163367234Y-116795919D01*
G37*
G36*
X171692234Y-116795919D02*
G01*
X171727561Y-116819524D01*
X171775199Y-116829000D01*
X173099801Y-116829000D01*
X173147439Y-116819524D01*
X173182766Y-116795919D01*
X173184762Y-116795788D01*
X173185873Y-116797451D01*
X173185540Y-116798693D01*
X173177033Y-116811425D01*
X173156253Y-116877789D01*
X173177042Y-116948589D01*
X173185540Y-116961307D01*
X173185671Y-116963303D01*
X173184008Y-116964414D01*
X173182766Y-116964081D01*
X173147439Y-116940476D01*
X173099801Y-116931000D01*
X171775199Y-116931000D01*
X171727561Y-116940476D01*
X171692234Y-116964081D01*
X171690238Y-116964212D01*
X171689127Y-116962549D01*
X171689460Y-116961307D01*
X171697967Y-116948575D01*
X171718747Y-116882211D01*
X171697958Y-116811411D01*
X171689460Y-116798693D01*
X171689329Y-116796697D01*
X171690992Y-116795586D01*
X171692234Y-116795919D01*
G37*
G36*
X165693693Y-114469460D02*
G01*
X165706425Y-114477967D01*
X165772789Y-114498747D01*
X165843589Y-114477958D01*
X165856307Y-114469460D01*
X165858303Y-114469329D01*
X165859414Y-114470992D01*
X165859081Y-114472234D01*
X165835476Y-114507561D01*
X165826000Y-114555199D01*
X165826000Y-115879801D01*
X165835476Y-115927439D01*
X165859081Y-115962766D01*
X165859212Y-115964762D01*
X165857549Y-115965873D01*
X165856307Y-115965540D01*
X165843575Y-115957033D01*
X165777211Y-115936253D01*
X165706411Y-115957042D01*
X165693693Y-115965540D01*
X165691697Y-115965671D01*
X165690586Y-115964008D01*
X165690919Y-115962766D01*
X165714524Y-115927439D01*
X165724000Y-115879801D01*
X165724000Y-114555199D01*
X165714524Y-114507561D01*
X165690919Y-114472234D01*
X165690788Y-114470238D01*
X165692451Y-114469127D01*
X165693693Y-114469460D01*
G37*
G36*
X166193693Y-114469460D02*
G01*
X166206425Y-114477967D01*
X166272789Y-114498747D01*
X166343589Y-114477958D01*
X166356307Y-114469460D01*
X166358303Y-114469329D01*
X166359414Y-114470992D01*
X166359081Y-114472234D01*
X166335476Y-114507561D01*
X166326000Y-114555199D01*
X166326000Y-115879801D01*
X166335476Y-115927439D01*
X166359081Y-115962766D01*
X166359212Y-115964762D01*
X166357549Y-115965873D01*
X166356307Y-115965540D01*
X166343575Y-115957033D01*
X166277211Y-115936253D01*
X166206411Y-115957042D01*
X166193693Y-115965540D01*
X166191697Y-115965671D01*
X166190586Y-115964008D01*
X166190919Y-115962766D01*
X166214524Y-115927439D01*
X166224000Y-115879801D01*
X166224000Y-114555199D01*
X166214524Y-114507561D01*
X166190919Y-114472234D01*
X166190788Y-114470238D01*
X166192451Y-114469127D01*
X166193693Y-114469460D01*
G37*
G36*
X170693693Y-114469460D02*
G01*
X170706425Y-114477967D01*
X170772789Y-114498747D01*
X170843589Y-114477958D01*
X170856307Y-114469460D01*
X170858303Y-114469329D01*
X170859414Y-114470992D01*
X170859081Y-114472234D01*
X170835476Y-114507561D01*
X170826000Y-114555199D01*
X170826000Y-115879801D01*
X170835476Y-115927439D01*
X170859081Y-115962766D01*
X170859212Y-115964762D01*
X170857549Y-115965873D01*
X170856307Y-115965540D01*
X170843575Y-115957033D01*
X170777211Y-115936253D01*
X170706411Y-115957042D01*
X170693693Y-115965540D01*
X170691697Y-115965671D01*
X170690586Y-115964008D01*
X170690919Y-115962766D01*
X170714524Y-115927439D01*
X170724000Y-115879801D01*
X170724000Y-114555199D01*
X170714524Y-114507561D01*
X170690919Y-114472234D01*
X170690788Y-114470238D01*
X170692451Y-114469127D01*
X170693693Y-114469460D01*
G37*
G36*
X170193693Y-114469460D02*
G01*
X170206425Y-114477967D01*
X170272789Y-114498747D01*
X170343589Y-114477958D01*
X170356307Y-114469460D01*
X170358303Y-114469329D01*
X170359414Y-114470992D01*
X170359081Y-114472234D01*
X170335476Y-114507561D01*
X170326000Y-114555199D01*
X170326000Y-115879801D01*
X170335476Y-115927439D01*
X170359081Y-115962766D01*
X170359212Y-115964762D01*
X170357549Y-115965873D01*
X170356307Y-115965540D01*
X170343575Y-115957033D01*
X170277211Y-115936253D01*
X170206411Y-115957042D01*
X170193693Y-115965540D01*
X170191697Y-115965671D01*
X170190586Y-115964008D01*
X170190919Y-115962766D01*
X170214524Y-115927439D01*
X170224000Y-115879801D01*
X170224000Y-114555199D01*
X170214524Y-114507561D01*
X170190919Y-114472234D01*
X170190788Y-114470238D01*
X170192451Y-114469127D01*
X170193693Y-114469460D01*
G37*
G36*
X169693693Y-114469460D02*
G01*
X169706425Y-114477967D01*
X169772789Y-114498747D01*
X169843589Y-114477958D01*
X169856307Y-114469460D01*
X169858303Y-114469329D01*
X169859414Y-114470992D01*
X169859081Y-114472234D01*
X169835476Y-114507561D01*
X169826000Y-114555199D01*
X169826000Y-115879801D01*
X169835476Y-115927439D01*
X169859081Y-115962766D01*
X169859212Y-115964762D01*
X169857549Y-115965873D01*
X169856307Y-115965540D01*
X169843575Y-115957033D01*
X169777211Y-115936253D01*
X169706411Y-115957042D01*
X169693693Y-115965540D01*
X169691697Y-115965671D01*
X169690586Y-115964008D01*
X169690919Y-115962766D01*
X169714524Y-115927439D01*
X169724000Y-115879801D01*
X169724000Y-114555199D01*
X169714524Y-114507561D01*
X169690919Y-114472234D01*
X169690788Y-114470238D01*
X169692451Y-114469127D01*
X169693693Y-114469460D01*
G37*
G36*
X169193693Y-114469460D02*
G01*
X169206425Y-114477967D01*
X169272789Y-114498747D01*
X169343589Y-114477958D01*
X169356307Y-114469460D01*
X169358303Y-114469329D01*
X169359414Y-114470992D01*
X169359081Y-114472234D01*
X169335476Y-114507561D01*
X169326000Y-114555199D01*
X169326000Y-115879801D01*
X169335476Y-115927439D01*
X169359081Y-115962766D01*
X169359212Y-115964762D01*
X169357549Y-115965873D01*
X169356307Y-115965540D01*
X169343575Y-115957033D01*
X169277211Y-115936253D01*
X169206411Y-115957042D01*
X169193693Y-115965540D01*
X169191697Y-115965671D01*
X169190586Y-115964008D01*
X169190919Y-115962766D01*
X169214524Y-115927439D01*
X169224000Y-115879801D01*
X169224000Y-114555199D01*
X169214524Y-114507561D01*
X169190919Y-114472234D01*
X169190788Y-114470238D01*
X169192451Y-114469127D01*
X169193693Y-114469460D01*
G37*
G36*
X166693693Y-114469460D02*
G01*
X166706425Y-114477967D01*
X166772789Y-114498747D01*
X166843589Y-114477958D01*
X166856307Y-114469460D01*
X166858303Y-114469329D01*
X166859414Y-114470992D01*
X166859081Y-114472234D01*
X166835476Y-114507561D01*
X166826000Y-114555199D01*
X166826000Y-115879801D01*
X166835476Y-115927439D01*
X166859081Y-115962766D01*
X166859212Y-115964762D01*
X166857549Y-115965873D01*
X166856307Y-115965540D01*
X166843575Y-115957033D01*
X166777211Y-115936253D01*
X166706411Y-115957042D01*
X166693693Y-115965540D01*
X166691697Y-115965671D01*
X166690586Y-115964008D01*
X166690919Y-115962766D01*
X166714524Y-115927439D01*
X166724000Y-115879801D01*
X166724000Y-114555199D01*
X166714524Y-114507561D01*
X166690919Y-114472234D01*
X166690788Y-114470238D01*
X166692451Y-114469127D01*
X166693693Y-114469460D01*
G37*
G36*
X167193693Y-114469460D02*
G01*
X167206425Y-114477967D01*
X167272789Y-114498747D01*
X167343589Y-114477958D01*
X167356307Y-114469460D01*
X167358303Y-114469329D01*
X167359414Y-114470992D01*
X167359081Y-114472234D01*
X167335476Y-114507561D01*
X167326000Y-114555199D01*
X167326000Y-115879801D01*
X167335476Y-115927439D01*
X167359081Y-115962766D01*
X167359212Y-115964762D01*
X167357549Y-115965873D01*
X167356307Y-115965540D01*
X167343575Y-115957033D01*
X167277211Y-115936253D01*
X167206411Y-115957042D01*
X167193693Y-115965540D01*
X167191697Y-115965671D01*
X167190586Y-115964008D01*
X167190919Y-115962766D01*
X167214524Y-115927439D01*
X167224000Y-115879801D01*
X167224000Y-114555199D01*
X167214524Y-114507561D01*
X167190919Y-114472234D01*
X167190788Y-114470238D01*
X167192451Y-114469127D01*
X167193693Y-114469460D01*
G37*
G36*
X167693693Y-114469460D02*
G01*
X167706425Y-114477967D01*
X167772789Y-114498747D01*
X167843589Y-114477958D01*
X167856307Y-114469460D01*
X167858303Y-114469329D01*
X167859414Y-114470992D01*
X167859081Y-114472234D01*
X167835476Y-114507561D01*
X167826000Y-114555199D01*
X167826000Y-115879801D01*
X167835476Y-115927439D01*
X167859081Y-115962766D01*
X167859212Y-115964762D01*
X167857549Y-115965873D01*
X167856307Y-115965540D01*
X167843575Y-115957033D01*
X167777211Y-115936253D01*
X167706411Y-115957042D01*
X167693693Y-115965540D01*
X167691697Y-115965671D01*
X167690586Y-115964008D01*
X167690919Y-115962766D01*
X167714524Y-115927439D01*
X167724000Y-115879801D01*
X167724000Y-114555199D01*
X167714524Y-114507561D01*
X167690919Y-114472234D01*
X167690788Y-114470238D01*
X167692451Y-114469127D01*
X167693693Y-114469460D01*
G37*
G36*
X168193693Y-114469460D02*
G01*
X168206425Y-114477967D01*
X168272789Y-114498747D01*
X168343589Y-114477958D01*
X168356307Y-114469460D01*
X168358303Y-114469329D01*
X168359414Y-114470992D01*
X168359081Y-114472234D01*
X168335476Y-114507561D01*
X168326000Y-114555199D01*
X168326000Y-115879801D01*
X168335476Y-115927439D01*
X168359081Y-115962766D01*
X168359212Y-115964762D01*
X168357549Y-115965873D01*
X168356307Y-115965540D01*
X168343575Y-115957033D01*
X168277211Y-115936253D01*
X168206411Y-115957042D01*
X168193693Y-115965540D01*
X168191697Y-115965671D01*
X168190586Y-115964008D01*
X168190919Y-115962766D01*
X168214524Y-115927439D01*
X168224000Y-115879801D01*
X168224000Y-114555199D01*
X168214524Y-114507561D01*
X168190919Y-114472234D01*
X168190788Y-114470238D01*
X168192451Y-114469127D01*
X168193693Y-114469460D01*
G37*
G36*
X168693693Y-114469460D02*
G01*
X168706425Y-114477967D01*
X168772789Y-114498747D01*
X168843589Y-114477958D01*
X168856307Y-114469460D01*
X168858303Y-114469329D01*
X168859414Y-114470992D01*
X168859081Y-114472234D01*
X168835476Y-114507561D01*
X168826000Y-114555199D01*
X168826000Y-115879801D01*
X168835476Y-115927439D01*
X168859081Y-115962766D01*
X168859212Y-115964762D01*
X168857549Y-115965873D01*
X168856307Y-115965540D01*
X168843575Y-115957033D01*
X168777211Y-115936253D01*
X168706411Y-115957042D01*
X168693693Y-115965540D01*
X168691697Y-115965671D01*
X168690586Y-115964008D01*
X168690919Y-115962766D01*
X168714524Y-115927439D01*
X168724000Y-115879801D01*
X168724000Y-114555199D01*
X168714524Y-114507561D01*
X168690919Y-114472234D01*
X168690788Y-114470238D01*
X168692451Y-114469127D01*
X168693693Y-114469460D01*
G37*
G36*
X176622267Y-110854886D02*
G01*
X176633262Y-110862233D01*
X176652199Y-110866000D01*
X177301801Y-110866000D01*
X177320738Y-110862233D01*
X177331733Y-110854886D01*
X177333729Y-110854755D01*
X177334840Y-110856418D01*
X177334507Y-110857660D01*
X177325291Y-110871452D01*
X177327031Y-110872615D01*
X177327916Y-110874409D01*
X177327455Y-110875560D01*
X177312922Y-110892952D01*
X177304296Y-110961670D01*
X177327082Y-111009288D01*
X177326928Y-111011282D01*
X177326389Y-111011814D01*
X177325291Y-111012548D01*
X177334507Y-111026340D01*
X177334638Y-111028336D01*
X177332975Y-111029447D01*
X177331733Y-111029114D01*
X177320738Y-111021767D01*
X177301801Y-111018000D01*
X176652199Y-111018000D01*
X176633262Y-111021767D01*
X176622267Y-111029114D01*
X176620271Y-111029245D01*
X176619160Y-111027582D01*
X176619493Y-111026340D01*
X176628709Y-111012548D01*
X176626969Y-111011385D01*
X176626084Y-111009591D01*
X176626545Y-111008440D01*
X176641078Y-110991048D01*
X176649704Y-110922330D01*
X176626918Y-110874712D01*
X176627072Y-110872718D01*
X176627611Y-110872186D01*
X176628709Y-110871452D01*
X176619493Y-110857660D01*
X176619362Y-110855664D01*
X176621025Y-110854553D01*
X176622267Y-110854886D01*
G37*
G36*
X178522267Y-110854886D02*
G01*
X178533262Y-110862233D01*
X178552199Y-110866000D01*
X179201801Y-110866000D01*
X179220738Y-110862233D01*
X179231733Y-110854886D01*
X179233729Y-110854755D01*
X179234840Y-110856418D01*
X179234507Y-110857660D01*
X179225291Y-110871452D01*
X179227031Y-110872615D01*
X179227916Y-110874409D01*
X179227455Y-110875560D01*
X179212922Y-110892952D01*
X179204296Y-110961670D01*
X179227082Y-111009288D01*
X179226928Y-111011282D01*
X179226389Y-111011814D01*
X179225291Y-111012548D01*
X179234507Y-111026340D01*
X179234638Y-111028336D01*
X179232975Y-111029447D01*
X179231733Y-111029114D01*
X179220738Y-111021767D01*
X179201801Y-111018000D01*
X178552199Y-111018000D01*
X178533262Y-111021767D01*
X178522267Y-111029114D01*
X178520271Y-111029245D01*
X178519160Y-111027582D01*
X178519493Y-111026340D01*
X178528709Y-111012548D01*
X178526969Y-111011385D01*
X178526084Y-111009591D01*
X178526545Y-111008440D01*
X178541078Y-110991048D01*
X178549704Y-110922330D01*
X178526918Y-110874712D01*
X178527072Y-110872718D01*
X178527611Y-110872186D01*
X178528709Y-110871452D01*
X178519493Y-110857660D01*
X178519362Y-110855664D01*
X178521025Y-110854553D01*
X178522267Y-110854886D01*
G37*
G36*
X176622267Y-110204886D02*
G01*
X176633262Y-110212233D01*
X176652199Y-110216000D01*
X177301801Y-110216000D01*
X177320738Y-110212233D01*
X177331733Y-110204886D01*
X177333729Y-110204755D01*
X177334840Y-110206418D01*
X177334507Y-110207660D01*
X177325291Y-110221452D01*
X177327031Y-110222615D01*
X177327916Y-110224409D01*
X177327455Y-110225560D01*
X177312922Y-110242952D01*
X177304296Y-110311670D01*
X177327082Y-110359288D01*
X177326928Y-110361282D01*
X177326389Y-110361814D01*
X177325291Y-110362548D01*
X177334507Y-110376340D01*
X177334638Y-110378336D01*
X177332975Y-110379447D01*
X177331733Y-110379114D01*
X177320738Y-110371767D01*
X177301801Y-110368000D01*
X176652199Y-110368000D01*
X176633262Y-110371767D01*
X176622267Y-110379114D01*
X176620271Y-110379245D01*
X176619160Y-110377582D01*
X176619493Y-110376340D01*
X176628709Y-110362548D01*
X176626969Y-110361385D01*
X176626084Y-110359591D01*
X176626545Y-110358440D01*
X176641078Y-110341048D01*
X176649704Y-110272330D01*
X176626918Y-110224712D01*
X176627072Y-110222718D01*
X176627611Y-110222186D01*
X176628709Y-110221452D01*
X176619493Y-110207660D01*
X176619362Y-110205664D01*
X176621025Y-110204553D01*
X176622267Y-110204886D01*
G37*
G36*
X178522267Y-110204886D02*
G01*
X178533262Y-110212233D01*
X178552199Y-110216000D01*
X179201801Y-110216000D01*
X179220738Y-110212233D01*
X179231733Y-110204886D01*
X179233729Y-110204755D01*
X179234840Y-110206418D01*
X179234507Y-110207660D01*
X179225291Y-110221452D01*
X179227031Y-110222615D01*
X179227916Y-110224409D01*
X179227455Y-110225560D01*
X179212922Y-110242952D01*
X179204296Y-110311670D01*
X179227082Y-110359288D01*
X179226928Y-110361282D01*
X179226389Y-110361814D01*
X179225291Y-110362548D01*
X179234507Y-110376340D01*
X179234638Y-110378336D01*
X179232975Y-110379447D01*
X179231733Y-110379114D01*
X179220738Y-110371767D01*
X179201801Y-110368000D01*
X178552199Y-110368000D01*
X178533262Y-110371767D01*
X178522267Y-110379114D01*
X178520271Y-110379245D01*
X178519160Y-110377582D01*
X178519493Y-110376340D01*
X178528709Y-110362548D01*
X178526969Y-110361385D01*
X178526084Y-110359591D01*
X178526545Y-110358440D01*
X178541078Y-110341048D01*
X178549704Y-110272330D01*
X178526918Y-110224712D01*
X178527072Y-110222718D01*
X178527611Y-110222186D01*
X178528709Y-110221452D01*
X178519493Y-110207660D01*
X178519362Y-110205664D01*
X178521025Y-110204553D01*
X178522267Y-110204886D01*
G37*
G36*
X140878527Y-99730000D02*
G01*
X140878527Y-99732000D01*
X140877056Y-99732983D01*
X140876817Y-99733015D01*
X140813204Y-99761154D01*
X140775070Y-99818965D01*
X140774244Y-99888220D01*
X140810983Y-99946914D01*
X140876825Y-99976985D01*
X140877068Y-99977017D01*
X140878655Y-99978235D01*
X140878394Y-99980218D01*
X140876807Y-99981000D01*
X139868205Y-99981000D01*
X139866473Y-99980000D01*
X139866473Y-99978000D01*
X139867944Y-99977017D01*
X139868183Y-99976985D01*
X139931796Y-99948846D01*
X139969930Y-99891035D01*
X139970756Y-99821780D01*
X139934017Y-99763086D01*
X139868175Y-99733015D01*
X139867932Y-99732983D01*
X139866345Y-99731765D01*
X139866606Y-99729782D01*
X139868193Y-99729000D01*
X140876795Y-99729000D01*
X140878527Y-99730000D01*
G37*
G36*
X138603527Y-99730000D02*
G01*
X138603527Y-99732000D01*
X138602056Y-99732983D01*
X138601817Y-99733015D01*
X138538204Y-99761154D01*
X138500070Y-99818965D01*
X138499244Y-99888220D01*
X138535983Y-99946914D01*
X138601825Y-99976985D01*
X138602068Y-99977017D01*
X138603655Y-99978235D01*
X138603394Y-99980218D01*
X138601807Y-99981000D01*
X137593205Y-99981000D01*
X137591473Y-99980000D01*
X137591473Y-99978000D01*
X137592944Y-99977017D01*
X137593183Y-99976985D01*
X137656796Y-99948846D01*
X137694930Y-99891035D01*
X137695756Y-99821780D01*
X137659017Y-99763086D01*
X137593175Y-99733015D01*
X137592932Y-99732983D01*
X137591345Y-99731765D01*
X137591606Y-99729782D01*
X137593193Y-99729000D01*
X138601795Y-99729000D01*
X138603527Y-99730000D01*
G37*
G36*
X170043527Y-99410000D02*
G01*
X170043527Y-99412000D01*
X170042056Y-99412983D01*
X170041817Y-99413015D01*
X169978204Y-99441154D01*
X169940070Y-99498965D01*
X169939244Y-99568220D01*
X169975983Y-99626914D01*
X170041825Y-99656985D01*
X170042068Y-99657017D01*
X170043655Y-99658235D01*
X170043394Y-99660218D01*
X170041807Y-99661000D01*
X169033205Y-99661000D01*
X169031473Y-99660000D01*
X169031473Y-99658000D01*
X169032944Y-99657017D01*
X169033183Y-99656985D01*
X169096796Y-99628846D01*
X169134930Y-99571035D01*
X169135756Y-99501780D01*
X169099017Y-99443086D01*
X169033175Y-99413015D01*
X169032932Y-99412983D01*
X169031345Y-99411765D01*
X169031606Y-99409782D01*
X169033193Y-99409000D01*
X170041795Y-99409000D01*
X170043527Y-99410000D01*
G37*
G36*
X167768527Y-99410000D02*
G01*
X167768527Y-99412000D01*
X167767056Y-99412983D01*
X167766817Y-99413015D01*
X167703204Y-99441154D01*
X167665070Y-99498965D01*
X167664244Y-99568220D01*
X167700983Y-99626914D01*
X167766825Y-99656985D01*
X167767068Y-99657017D01*
X167768655Y-99658235D01*
X167768394Y-99660218D01*
X167766807Y-99661000D01*
X166758205Y-99661000D01*
X166756473Y-99660000D01*
X166756473Y-99658000D01*
X166757944Y-99657017D01*
X166758183Y-99656985D01*
X166821796Y-99628846D01*
X166859930Y-99571035D01*
X166860756Y-99501780D01*
X166824017Y-99443086D01*
X166758175Y-99413015D01*
X166757932Y-99412983D01*
X166756345Y-99411765D01*
X166756606Y-99409782D01*
X166758193Y-99409000D01*
X167766795Y-99409000D01*
X167768527Y-99410000D01*
G37*
G36*
X140878527Y-98780000D02*
G01*
X140878527Y-98782000D01*
X140877056Y-98782983D01*
X140876817Y-98783015D01*
X140813204Y-98811154D01*
X140775070Y-98868965D01*
X140774244Y-98938220D01*
X140810983Y-98996914D01*
X140876825Y-99026985D01*
X140877068Y-99027017D01*
X140878655Y-99028235D01*
X140878394Y-99030218D01*
X140876807Y-99031000D01*
X139868205Y-99031000D01*
X139866473Y-99030000D01*
X139866473Y-99028000D01*
X139867944Y-99027017D01*
X139868183Y-99026985D01*
X139931796Y-98998846D01*
X139969930Y-98941035D01*
X139970756Y-98871780D01*
X139934017Y-98813086D01*
X139868175Y-98783015D01*
X139867932Y-98782983D01*
X139866345Y-98781765D01*
X139866606Y-98779782D01*
X139868193Y-98779000D01*
X140876795Y-98779000D01*
X140878527Y-98780000D01*
G37*
G36*
X138603527Y-98780000D02*
G01*
X138603527Y-98782000D01*
X138602056Y-98782983D01*
X138601817Y-98783015D01*
X138538204Y-98811154D01*
X138500070Y-98868965D01*
X138499244Y-98938220D01*
X138535983Y-98996914D01*
X138601825Y-99026985D01*
X138602068Y-99027017D01*
X138603655Y-99028235D01*
X138603394Y-99030218D01*
X138601807Y-99031000D01*
X137593205Y-99031000D01*
X137591473Y-99030000D01*
X137591473Y-99028000D01*
X137592944Y-99027017D01*
X137593183Y-99026985D01*
X137656796Y-98998846D01*
X137694930Y-98941035D01*
X137695756Y-98871780D01*
X137659017Y-98813086D01*
X137593175Y-98783015D01*
X137592932Y-98782983D01*
X137591345Y-98781765D01*
X137591606Y-98779782D01*
X137593193Y-98779000D01*
X138601795Y-98779000D01*
X138603527Y-98780000D01*
G37*
G36*
X196123527Y-98648000D02*
G01*
X196123527Y-98650000D01*
X196122056Y-98650983D01*
X196121817Y-98651015D01*
X196058204Y-98679154D01*
X196020070Y-98736965D01*
X196019244Y-98806220D01*
X196055983Y-98864914D01*
X196121825Y-98894985D01*
X196122068Y-98895017D01*
X196123655Y-98896235D01*
X196123394Y-98898218D01*
X196121807Y-98899000D01*
X195113205Y-98899000D01*
X195111473Y-98898000D01*
X195111473Y-98896000D01*
X195112944Y-98895017D01*
X195113183Y-98894985D01*
X195176796Y-98866846D01*
X195214930Y-98809035D01*
X195215756Y-98739780D01*
X195179017Y-98681086D01*
X195113175Y-98651015D01*
X195112932Y-98650983D01*
X195111345Y-98649765D01*
X195111606Y-98647782D01*
X195113193Y-98647000D01*
X196121795Y-98647000D01*
X196123527Y-98648000D01*
G37*
G36*
X193848527Y-98648000D02*
G01*
X193848527Y-98650000D01*
X193847056Y-98650983D01*
X193846817Y-98651015D01*
X193783204Y-98679154D01*
X193745070Y-98736965D01*
X193744244Y-98806220D01*
X193780983Y-98864914D01*
X193846825Y-98894985D01*
X193847068Y-98895017D01*
X193848655Y-98896235D01*
X193848394Y-98898218D01*
X193846807Y-98899000D01*
X192838205Y-98899000D01*
X192836473Y-98898000D01*
X192836473Y-98896000D01*
X192837944Y-98895017D01*
X192838183Y-98894985D01*
X192901796Y-98866846D01*
X192939930Y-98809035D01*
X192940756Y-98739780D01*
X192904017Y-98681086D01*
X192838175Y-98651015D01*
X192837932Y-98650983D01*
X192836345Y-98649765D01*
X192836606Y-98647782D01*
X192838193Y-98647000D01*
X193846795Y-98647000D01*
X193848527Y-98648000D01*
G37*
G36*
X170043527Y-98460000D02*
G01*
X170043527Y-98462000D01*
X170042056Y-98462983D01*
X170041817Y-98463015D01*
X169978204Y-98491154D01*
X169940070Y-98548965D01*
X169939244Y-98618220D01*
X169975983Y-98676914D01*
X170041825Y-98706985D01*
X170042068Y-98707017D01*
X170043655Y-98708235D01*
X170043394Y-98710218D01*
X170041807Y-98711000D01*
X169033205Y-98711000D01*
X169031473Y-98710000D01*
X169031473Y-98708000D01*
X169032944Y-98707017D01*
X169033183Y-98706985D01*
X169096796Y-98678846D01*
X169134930Y-98621035D01*
X169135756Y-98551780D01*
X169099017Y-98493086D01*
X169033175Y-98463015D01*
X169032932Y-98462983D01*
X169031345Y-98461765D01*
X169031606Y-98459782D01*
X169033193Y-98459000D01*
X170041795Y-98459000D01*
X170043527Y-98460000D01*
G37*
G36*
X167768527Y-98460000D02*
G01*
X167768527Y-98462000D01*
X167767056Y-98462983D01*
X167766817Y-98463015D01*
X167703204Y-98491154D01*
X167665070Y-98548965D01*
X167664244Y-98618220D01*
X167700983Y-98676914D01*
X167766825Y-98706985D01*
X167767068Y-98707017D01*
X167768655Y-98708235D01*
X167768394Y-98710218D01*
X167766807Y-98711000D01*
X166758205Y-98711000D01*
X166756473Y-98710000D01*
X166756473Y-98708000D01*
X166757944Y-98707017D01*
X166758183Y-98706985D01*
X166821796Y-98678846D01*
X166859930Y-98621035D01*
X166860756Y-98551780D01*
X166824017Y-98493086D01*
X166758175Y-98463015D01*
X166757932Y-98462983D01*
X166756345Y-98461765D01*
X166756606Y-98459782D01*
X166758193Y-98459000D01*
X167766795Y-98459000D01*
X167768527Y-98460000D01*
G37*
G36*
X193848527Y-97698000D02*
G01*
X193848527Y-97700000D01*
X193847056Y-97700983D01*
X193846817Y-97701015D01*
X193783204Y-97729154D01*
X193745070Y-97786965D01*
X193744244Y-97856220D01*
X193780983Y-97914914D01*
X193846825Y-97944985D01*
X193847068Y-97945017D01*
X193848655Y-97946235D01*
X193848394Y-97948218D01*
X193846807Y-97949000D01*
X192838205Y-97949000D01*
X192836473Y-97948000D01*
X192836473Y-97946000D01*
X192837944Y-97945017D01*
X192838183Y-97944985D01*
X192901796Y-97916846D01*
X192939930Y-97859035D01*
X192940756Y-97789780D01*
X192904017Y-97731086D01*
X192838175Y-97701015D01*
X192837932Y-97700983D01*
X192836345Y-97699765D01*
X192836606Y-97697782D01*
X192838193Y-97697000D01*
X193846795Y-97697000D01*
X193848527Y-97698000D01*
G37*
G36*
X196123527Y-97698000D02*
G01*
X196123527Y-97700000D01*
X196122056Y-97700983D01*
X196121817Y-97701015D01*
X196058204Y-97729154D01*
X196020070Y-97786965D01*
X196019244Y-97856220D01*
X196055983Y-97914914D01*
X196121825Y-97944985D01*
X196122068Y-97945017D01*
X196123655Y-97946235D01*
X196123394Y-97948218D01*
X196121807Y-97949000D01*
X195113205Y-97949000D01*
X195111473Y-97948000D01*
X195111473Y-97946000D01*
X195112944Y-97945017D01*
X195113183Y-97944985D01*
X195176796Y-97916846D01*
X195214930Y-97859035D01*
X195215756Y-97789780D01*
X195179017Y-97731086D01*
X195113175Y-97701015D01*
X195112932Y-97700983D01*
X195111345Y-97699765D01*
X195111606Y-97697782D01*
X195113193Y-97697000D01*
X196121795Y-97697000D01*
X196123527Y-97698000D01*
G37*
G36*
X132002919Y-61706652D02*
G01*
X132022596Y-61773667D01*
X132074939Y-61819022D01*
X132143492Y-61828879D01*
X132206565Y-61800074D01*
X132214333Y-61789782D01*
X132215730Y-61789190D01*
X132237354Y-61767566D01*
X132239286Y-61767048D01*
X132240700Y-61768462D01*
X132240431Y-61770091D01*
X132211185Y-61813860D01*
X132196000Y-61890199D01*
X132196000Y-62189801D01*
X132211185Y-62266140D01*
X132240431Y-62309909D01*
X132240562Y-62311905D01*
X132238899Y-62313016D01*
X132237354Y-62312434D01*
X132216345Y-62291425D01*
X132215274Y-62292496D01*
X132213342Y-62293014D01*
X132212359Y-62292404D01*
X132191629Y-62268860D01*
X132125025Y-62249875D01*
X132058730Y-62269913D01*
X132013738Y-62322676D01*
X132002956Y-62373201D01*
X132001616Y-62374687D01*
X131999661Y-62374269D01*
X131999000Y-62372784D01*
X131999000Y-61707215D01*
X132000000Y-61705483D01*
X132002000Y-61705483D01*
X132002919Y-61706652D01*
G37*
G36*
X129490339Y-61705735D02*
G01*
X129491000Y-61707220D01*
X129491000Y-62372781D01*
X129490000Y-62374513D01*
X129488000Y-62374513D01*
X129487081Y-62373344D01*
X129467405Y-62306332D01*
X129415062Y-62260977D01*
X129346509Y-62251120D01*
X129283436Y-62279925D01*
X129275667Y-62290218D01*
X129274270Y-62290810D01*
X129252646Y-62312434D01*
X129250714Y-62312952D01*
X129249300Y-62311538D01*
X129249569Y-62309909D01*
X129278815Y-62266140D01*
X129294000Y-62189801D01*
X129294000Y-61890199D01*
X129278815Y-61813860D01*
X129249569Y-61770091D01*
X129249438Y-61768095D01*
X129251101Y-61766984D01*
X129252646Y-61767566D01*
X129273655Y-61788575D01*
X129274726Y-61787504D01*
X129276658Y-61786986D01*
X129277641Y-61787596D01*
X129298383Y-61811148D01*
X129364989Y-61830126D01*
X129431282Y-61810081D01*
X129476269Y-61757313D01*
X129487044Y-61706803D01*
X129488383Y-61705317D01*
X129490339Y-61705735D01*
G37*
G36*
X132002919Y-60436656D02*
G01*
X132022595Y-60503668D01*
X132074938Y-60549023D01*
X132143491Y-60558880D01*
X132206564Y-60530075D01*
X132214333Y-60519782D01*
X132215730Y-60519190D01*
X132237354Y-60497566D01*
X132239286Y-60497048D01*
X132240700Y-60498462D01*
X132240431Y-60500091D01*
X132211185Y-60543860D01*
X132196000Y-60620199D01*
X132196000Y-60919801D01*
X132211185Y-60996140D01*
X132240431Y-61039909D01*
X132240562Y-61041905D01*
X132238899Y-61043016D01*
X132237354Y-61042434D01*
X132216345Y-61021425D01*
X132215274Y-61022496D01*
X132213342Y-61023014D01*
X132212359Y-61022404D01*
X132191617Y-60998852D01*
X132125011Y-60979874D01*
X132058718Y-60999919D01*
X132013731Y-61052687D01*
X132002956Y-61103197D01*
X132001617Y-61104683D01*
X131999661Y-61104265D01*
X131999000Y-61102780D01*
X131999000Y-60437219D01*
X132000000Y-60435487D01*
X132002000Y-60435487D01*
X132002919Y-60436656D01*
G37*
G36*
X129490339Y-60435731D02*
G01*
X129491000Y-60437216D01*
X129491000Y-61102785D01*
X129490000Y-61104517D01*
X129488000Y-61104517D01*
X129487081Y-61103348D01*
X129467404Y-61036333D01*
X129415061Y-60990978D01*
X129346508Y-60981121D01*
X129283435Y-61009926D01*
X129275667Y-61020218D01*
X129274270Y-61020810D01*
X129252646Y-61042434D01*
X129250714Y-61042952D01*
X129249300Y-61041538D01*
X129249569Y-61039909D01*
X129278815Y-60996140D01*
X129294000Y-60919801D01*
X129294000Y-60620199D01*
X129278815Y-60543860D01*
X129249569Y-60500091D01*
X129249438Y-60498095D01*
X129251101Y-60496984D01*
X129252646Y-60497566D01*
X129273655Y-60518575D01*
X129274726Y-60517504D01*
X129276658Y-60516986D01*
X129277641Y-60517596D01*
X129298371Y-60541140D01*
X129364975Y-60560125D01*
X129431270Y-60540087D01*
X129476262Y-60487324D01*
X129487044Y-60436799D01*
X129488384Y-60435313D01*
X129490339Y-60435731D01*
G37*
M02*
