M48
; DRILL file {KiCad (6.0.5-0)} date Wednesday, May 18, 2022 at 12:34:25 am
; FORMAT={-:-/ absolute / inch / decimal}
; #@! TF.CreationDate,2022-05-18T00:34:25-07:00
; #@! TF.GenerationSoftware,Kicad,Pcbnew,(6.0.5-0)
; #@! TF.FileFunction,Plated,1,4,PTH
FMAT,2
INCH
; #@! TA.AperFunction,Plated,PTH,ComponentDrill
T1C0.0079
; #@! TA.AperFunction,Plated,PTH,ViaDrill
T2C0.0157
; #@! TA.AperFunction,Plated,PTH,ComponentDrill
T3C0.0295
; #@! TA.AperFunction,Plated,PTH,ComponentDrill
T4C0.0394
; #@! TA.AperFunction,Plated,PTH,ComponentDrill
T5C0.0472
; #@! TA.AperFunction,Plated,PTH,ComponentDrill
T6C0.1732
%
G90
G05
T1
X4.8206Y-4.4944
X4.8206Y-4.5456
X4.86Y-4.4944
X4.86Y-4.5456
X4.8994Y-4.4944
X4.8994Y-4.5456
X5.1199Y-2.3703
X5.1199Y-2.4175
X5.1199Y-2.4648
X5.175Y-2.3703
X5.175Y-2.4175
X5.175Y-2.4648
X5.4856Y-4.3469
X5.4856Y-4.398
X5.525Y-4.3469
X5.525Y-4.398
X5.5644Y-4.3469
X5.5644Y-4.398
T2
X4.62Y-5.02
X4.62Y-5.095
X4.62Y-5.165
X4.625Y-4.39
X4.625Y-4.475
X4.625Y-4.56
X4.625Y-4.635
X4.625Y-4.715
X4.625Y-4.79
X4.625Y-4.86
X4.66Y-2.73
X4.66Y-2.78
X4.66Y-2.83
X4.66Y-2.88
X4.66Y-2.93
X4.67Y-2.68
X4.68Y-4.655
X4.685Y-4.6
X4.685Y-3.0807
X4.685Y-3.1299
X4.69Y-3.03
X4.71Y-2.98
X4.72Y-2.68
X4.72Y-4.625
X4.725Y-4.58
X4.73Y-3.285
X4.7343Y-3.0807
X4.7343Y-3.1299
X4.74Y-3.03
X4.77Y-4.495
X4.77Y-4.545
X4.775Y-4.01
X4.7835Y-3.0315
X4.7835Y-3.0807
X4.7835Y-3.1299
X4.79Y-5.16
X4.83Y-4.755
X4.83Y-4.81
X4.83Y-4.86
X4.835Y-4.955
X4.86Y-5.16
X4.87Y-4.685
X4.875Y-4.905
X4.875Y-5.005
X4.88Y-4.81
X4.88Y-4.86
X4.88Y-4.955
X4.8937Y-2.6772
X4.8937Y-2.7283
X4.8937Y-2.7756
X4.8937Y-2.8228
X4.8937Y-2.874
X4.8937Y-2.9232
X4.895Y-4.2
X4.9Y-2.98
X4.9Y-4.715
X4.915Y-4.925
X4.9213Y-3.376
X4.9213Y-3.4252
X4.9213Y-3.4744
X4.9213Y-3.5236
X4.9213Y-3.5728
X4.9213Y-3.622
X4.9213Y-3.6713
X4.9213Y-3.7205
X4.925Y-4.02
X4.925Y-4.76
X4.925Y-5.16
X4.93Y-4.81
X4.93Y-4.86
X4.9409Y-2.6772
X4.9409Y-2.7283
X4.9409Y-2.7756
X4.9409Y-2.8228
X4.9409Y-2.874
X4.9409Y-2.9232
X4.9492Y-2.98
X4.955Y-4.2
X4.96Y-4.905
X4.96Y-4.955
X4.96Y-5.0
X4.965Y-4.51
X4.965Y-4.555
X4.97Y-4.37
X4.9705Y-3.376
X4.9705Y-3.4252
X4.9705Y-3.4744
X4.9705Y-3.5236
X4.9705Y-3.5728
X4.9705Y-3.622
X4.9705Y-3.6713
X4.975Y-4.83
X4.985Y-4.47
X4.9902Y-2.6772
X4.9902Y-2.7264
X4.9902Y-2.7756
X4.9902Y-2.8248
X4.9902Y-2.874
X4.9902Y-2.9232
X4.995Y-5.16
X4.9984Y-2.98
X5.005Y-4.43
X5.01Y-4.51
X5.01Y-4.905
X5.0197Y-3.376
X5.0197Y-3.4252
X5.0197Y-3.4744
X5.0197Y-3.5236
X5.0197Y-3.5728
X5.0197Y-3.622
X5.0197Y-3.6713
X5.0197Y-3.7205
X5.03Y-4.465
X5.035Y-4.17
X5.0394Y-2.6772
X5.0394Y-2.7264
X5.0394Y-2.7756
X5.0394Y-2.8248
X5.0394Y-2.874
X5.0394Y-2.9232
X5.0476Y-2.98
X5.055Y-4.43
X5.0689Y-3.376
X5.0689Y-3.4252
X5.0689Y-3.4744
X5.0689Y-3.5236
X5.0689Y-3.5728
X5.0689Y-3.622
X5.0689Y-3.6713
X5.07Y-5.16
X5.085Y-4.195
X5.0866Y-2.6772
X5.0866Y-2.7264
X5.0866Y-2.7756
X5.0866Y-2.8248
X5.0866Y-2.874
X5.0866Y-2.9232
X5.095Y-4.135
X5.0969Y-2.98
X5.11Y-4.38
X5.1181Y-3.376
X5.1181Y-3.4252
X5.1181Y-3.4744
X5.1181Y-3.5236
X5.1181Y-3.5728
X5.1181Y-3.622
X5.1181Y-3.6713
X5.1181Y-3.7205
X5.1378Y-2.6772
X5.1378Y-2.7264
X5.1378Y-2.7756
X5.1378Y-2.8248
X5.1378Y-2.874
X5.1378Y-2.9232
X5.1461Y-2.98
X5.15Y-4.02
X5.1673Y-3.376
X5.1673Y-3.4252
X5.1673Y-3.4744
X5.1673Y-3.5236
X5.1673Y-3.5728
X5.1673Y-3.622
X5.1673Y-3.6713
X5.185Y-2.6772
X5.185Y-2.7264
X5.185Y-2.7756
X5.185Y-2.8248
X5.185Y-2.874
X5.185Y-2.9232
X5.21Y-2.3
X5.2165Y-3.376
X5.2165Y-3.4252
X5.2165Y-3.4744
X5.2165Y-3.5236
X5.2165Y-3.5728
X5.2165Y-3.622
X5.2165Y-3.6713
X5.2165Y-3.7205
X5.22Y-2.56
X5.235Y-4.33
X5.2362Y-2.6772
X5.2362Y-2.7264
X5.2362Y-2.7756
X5.2362Y-2.8248
X5.2362Y-2.874
X5.2362Y-2.9232
X5.2657Y-3.376
X5.2657Y-3.4252
X5.2657Y-3.4744
X5.2657Y-3.5236
X5.2657Y-3.5728
X5.2657Y-3.622
X5.2657Y-3.6713
X5.27Y-3.995
X5.2835Y-2.6772
X5.2835Y-2.7264
X5.2835Y-2.7756
X5.2835Y-2.8248
X5.2835Y-2.874
X5.2835Y-2.9232
X5.285Y-4.08
X5.295Y-4.485
X5.3Y-4.33
X5.305Y-3.945
X5.31Y-4.625
X5.31Y-4.67
X5.33Y-4.365
X5.3346Y-2.6772
X5.3346Y-2.7264
X5.3346Y-2.7756
X5.3346Y-2.8248
X5.3346Y-2.874
X5.3346Y-2.9232
X5.335Y-4.42
X5.38Y-4.47
X5.415Y-3.215
X5.415Y-4.425
X5.42Y-3.695
X5.425Y-4.05
X5.425Y-4.09
X5.425Y-4.34
X5.425Y-4.38
X5.44Y-4.89
X5.445Y-4.745
X5.45Y-4.805
X5.4528Y-2.9921
X5.4528Y-3.0413
X5.4528Y-3.0906
X5.455Y-3.8
X5.465Y-3.215
X5.475Y-4.05
X5.485Y-4.095
X5.502Y-2.9429
X5.502Y-2.9921
X5.502Y-3.0413
X5.502Y-3.0906
X5.505Y-3.8
X5.505Y-4.625
X5.515Y-4.685
X5.54Y-4.545
X5.54Y-4.885
X5.5512Y-2.9429
X5.5512Y-2.9921
X5.5512Y-3.0413
X5.5512Y-3.0906
X5.57Y-4.685
X5.58Y-3.975
X5.585Y-4.545
X5.585Y-4.885
X5.6Y-4.59
X5.6Y-4.645
X5.6004Y-2.9429
X5.6004Y-2.9921
X5.6004Y-3.0413
X5.6004Y-3.0906
X5.61Y-4.73
X5.61Y-4.775
X5.62Y-4.345
X5.62Y-4.395
X5.635Y-4.3
X5.64Y-4.685
X5.6496Y-2.9429
X5.6496Y-2.9921
X5.6496Y-3.0413
X5.6496Y-3.0906
X5.665Y-4.83
X5.67Y-4.34
X5.67Y-4.385
X5.67Y-4.73
X5.69Y-4.685
X5.6988Y-2.9429
X5.6988Y-2.9921
X5.6988Y-3.0413
X5.72Y-4.37
X5.725Y-3.8
X5.735Y-4.32
X5.748Y-2.9921
X5.748Y-3.0413
X5.755Y-4.16
X5.77Y-4.025
X5.785Y-4.335
X5.795Y-3.0208
X5.795Y-3.07
X5.81Y-4.16
X5.815Y-3.285
X5.82Y-4.025
X5.82Y-4.365
X5.8224Y-3.825
X5.8442Y-3.0208
X5.8442Y-3.07
X5.875Y-4.025
X5.885Y-3.97
X5.89Y-4.18
X5.925Y-4.325
X5.95Y-4.18
X5.96Y-4.025
X5.97Y-4.455
X5.975Y-4.955
X5.9961Y-2.6772
X5.9961Y-2.7283
X5.9961Y-2.7756
X5.9961Y-2.8268
X5.9961Y-2.874
X5.9961Y-2.9213
X6.0Y-2.98
X6.01Y-4.18
X6.0138Y-3.376
X6.0138Y-3.4252
X6.0138Y-3.4744
X6.0138Y-3.5236
X6.0138Y-3.5728
X6.0138Y-3.622
X6.0138Y-3.6713
X6.03Y-4.6
X6.0433Y-2.6772
X6.0433Y-2.7264
X6.0433Y-2.7756
X6.0433Y-2.8248
X6.0433Y-2.874
X6.0433Y-2.9232
X6.0492Y-2.98
X6.063Y-3.376
X6.063Y-3.4252
X6.063Y-3.4744
X6.063Y-3.5236
X6.063Y-3.5728
X6.063Y-3.622
X6.063Y-3.6713
X6.063Y-3.7205
X6.075Y-4.82
X6.0906Y-2.6772
X6.0925Y-2.7264
X6.0925Y-2.7756
X6.0925Y-2.8248
X6.0925Y-2.874
X6.0925Y-2.9232
X6.0984Y-2.98
X6.1122Y-3.376
X6.1122Y-3.4252
X6.1122Y-3.4744
X6.1122Y-3.5236
X6.1122Y-3.5728
X6.1122Y-3.622
X6.1122Y-3.6713
X6.1398Y-2.7264
X6.1398Y-2.7756
X6.1398Y-2.8248
X6.1398Y-2.874
X6.1398Y-2.9232
X6.1417Y-2.6772
X6.1476Y-2.98
X6.16Y-5.09
X6.1614Y-3.376
X6.1614Y-3.4252
X6.1614Y-3.4744
X6.1614Y-3.5236
X6.1614Y-3.5728
X6.1614Y-3.622
X6.1614Y-3.6713
X6.1614Y-3.7205
X6.189Y-2.6772
X6.1909Y-2.7264
X6.1909Y-2.7756
X6.1909Y-2.8248
X6.1909Y-2.874
X6.1909Y-2.9232
X6.1969Y-2.98
X6.205Y-4.125
X6.2106Y-3.376
X6.2106Y-3.4252
X6.2106Y-3.4744
X6.2106Y-3.5236
X6.2106Y-3.5728
X6.2106Y-3.622
X6.2106Y-3.6713
X6.2326Y-4.955
X6.2382Y-2.7264
X6.2382Y-2.7756
X6.2382Y-2.8248
X6.2382Y-2.874
X6.2382Y-2.9232
X6.2402Y-2.6772
X6.2461Y-2.98
X6.2598Y-3.376
X6.2598Y-3.4252
X6.2598Y-3.4744
X6.2598Y-3.5236
X6.2598Y-3.5728
X6.2598Y-3.622
X6.2598Y-3.6713
X6.2598Y-3.7205
X6.265Y-3.97
X6.27Y-4.89
X6.28Y-4.45
X6.2874Y-2.6772
X6.2894Y-2.7264
X6.2894Y-2.7756
X6.2894Y-2.8248
X6.2894Y-2.874
X6.2894Y-2.9232
X6.3Y-4.64
X6.3091Y-3.376
X6.3091Y-3.4252
X6.3091Y-3.4744
X6.3091Y-3.5236
X6.3091Y-3.5728
X6.3091Y-3.622
X6.3091Y-3.6713
X6.315Y-4.75
X6.315Y-4.895
X6.3366Y-2.7264
X6.3366Y-2.7756
X6.3366Y-2.8248
X6.3366Y-2.874
X6.3366Y-2.9232
X6.3386Y-2.6772
X6.3583Y-3.376
X6.3583Y-3.4252
X6.3583Y-3.4744
X6.3583Y-3.5236
X6.3583Y-3.5728
X6.3583Y-3.622
X6.3583Y-3.6713
X6.3583Y-3.7205
X6.365Y-4.315
X6.365Y-4.36
X6.365Y-4.405
X6.365Y-4.525
X6.365Y-4.665
X6.375Y-4.46
X6.3858Y-2.6772
X6.3878Y-2.7264
X6.3878Y-2.7756
X6.3878Y-2.8248
X6.3878Y-2.874
X6.3878Y-2.9232
X6.39Y-4.81
X6.415Y-4.965
X6.425Y-3.86
X6.43Y-4.25
X6.43Y-4.49
X6.43Y-4.855
X6.437Y-2.6772
X6.437Y-2.7264
X6.437Y-2.7756
X6.437Y-2.8248
X6.437Y-2.874
X6.48Y-4.25
X6.5Y-3.7
X6.505Y-4.92
X6.51Y-4.48
X6.525Y-4.79
X6.53Y-3.13
X6.53Y-4.62
X6.53Y-4.67
X6.5354Y-2.9724
X6.5354Y-3.0217
X6.5354Y-3.0709
X6.54Y-4.06
X6.56Y-4.24
X6.575Y-4.95
X6.58Y-4.0
X6.5836Y-4.7507
X6.5846Y-2.9331
X6.5846Y-2.9724
X6.5846Y-3.0217
X6.5846Y-3.0709
X6.6Y-3.135
X6.605Y-3.775
X6.61Y-4.045
X6.615Y-4.195
X6.615Y-4.375
X6.63Y-3.995
X6.6339Y-2.9331
X6.6339Y-2.9724
X6.6339Y-3.0217
X6.6339Y-3.0709
X6.6475Y-4.61
X6.65Y-4.8
X6.66Y-4.195
X6.675Y-3.82
X6.675Y-5.085
X6.68Y-4.445
X6.6831Y-2.9331
X6.6831Y-2.9724
X6.6831Y-3.0217
X6.6831Y-3.0709
X6.69Y-4.66
X6.725Y-4.7225
X6.7323Y-2.9331
X6.7323Y-2.9724
X6.7323Y-3.0217
X6.7323Y-3.0709
X6.735Y-3.91
X6.735Y-3.95
X6.735Y-3.995
X6.735Y-4.045
X6.735Y-4.785
X6.735Y-4.945
X6.76Y-4.47
X6.765Y-3.815
X6.775Y-4.91
X6.78Y-4.07
X6.7815Y-2.9331
X6.7815Y-2.9724
X6.7815Y-3.0217
X6.7815Y-3.0709
X6.8Y-4.95
X6.8Y-5.045
X6.827Y-4.877
X6.8307Y-2.9331
X6.8307Y-2.9724
X6.8307Y-3.0217
X6.845Y-4.295
X6.845Y-4.56
X6.875Y-3.7302
X6.8799Y-2.9724
X6.8799Y-3.0217
X6.88Y-4.265
X6.89Y-4.655
X6.915Y-4.305
X6.915Y-4.355
X6.915Y-4.41
X6.915Y-5.15
X6.915Y-5.205
X6.925Y-4.225
X6.9291Y-3.0217
X6.93Y-4.46
X6.93Y-4.505
X6.94Y-3.98
X6.965Y-4.27
X6.975Y-4.165
X6.99Y-4.5
X6.995Y-4.215
X7.015Y-4.27
X7.025Y-3.98
X7.035Y-3.785
X7.04Y-4.5
X7.0571Y-2.6673
X7.0571Y-2.7165
X7.0571Y-2.7657
X7.0571Y-2.815
X7.0571Y-2.8642
X7.0571Y-2.9134
X7.06Y-2.98
X7.06Y-3.26
X7.06Y-4.74
X7.065Y-5.055
X7.0866Y-3.376
X7.0866Y-3.4252
X7.0866Y-3.4744
X7.0866Y-3.5236
X7.0866Y-3.5728
X7.0866Y-3.622
X7.0866Y-3.6713
X7.0866Y-3.7205
X7.09Y-4.855
X7.095Y-4.285
X7.095Y-4.41
X7.095Y-4.3401
X7.105Y-3.83
X7.105Y-4.98
X7.1063Y-2.6673
X7.1063Y-2.7165
X7.1063Y-2.7657
X7.1063Y-2.815
X7.1063Y-2.8642
X7.1063Y-2.9134
X7.1092Y-2.98
X7.1358Y-3.376
X7.1358Y-3.4252
X7.1358Y-3.4744
X7.1358Y-3.5236
X7.1358Y-3.5728
X7.1358Y-3.622
X7.1358Y-3.6713
X7.1555Y-2.6673
X7.1555Y-2.7165
X7.1555Y-2.7657
X7.1555Y-2.815
X7.1555Y-2.8642
X7.1555Y-2.9134
X7.1584Y-2.98
X7.165Y-4.69
X7.185Y-3.376
X7.185Y-3.4252
X7.185Y-3.4744
X7.185Y-3.5236
X7.185Y-3.5728
X7.185Y-3.622
X7.185Y-3.6713
X7.185Y-3.7205
X7.195Y-4.835
X7.2047Y-2.6673
X7.2047Y-2.7165
X7.2047Y-2.7657
X7.2047Y-2.815
X7.2047Y-2.8642
X7.2047Y-2.9134
X7.2076Y-2.98
X7.2343Y-3.376
X7.2343Y-3.4252
X7.2343Y-3.4744
X7.2343Y-3.5236
X7.2343Y-3.5728
X7.2343Y-3.622
X7.2343Y-3.6713
X7.245Y-4.02
X7.245Y-5.035
X7.245Y-5.1375
X7.25Y-4.69
X7.2539Y-2.6673
X7.2539Y-2.7165
X7.2539Y-2.7657
X7.2539Y-2.815
X7.2539Y-2.8642
X7.2539Y-2.9134
X7.2569Y-2.98
X7.265Y-4.455
X7.275Y-4.11
X7.275Y-4.62
X7.28Y-5.24
X7.2835Y-3.376
X7.2835Y-3.4252
X7.2835Y-3.4744
X7.2835Y-3.5236
X7.2835Y-3.5728
X7.2835Y-3.622
X7.2835Y-3.6713
X7.2835Y-3.7205
X7.295Y-3.87
X7.3031Y-2.6673
X7.3031Y-2.7165
X7.3031Y-2.7657
X7.3031Y-2.815
X7.3031Y-2.8642
X7.3031Y-2.9134
X7.3061Y-2.98
X7.32Y-4.695
X7.3327Y-3.376
X7.3327Y-3.4252
X7.3327Y-3.4744
X7.3327Y-3.5236
X7.3327Y-3.5728
X7.3327Y-3.622
X7.3327Y-3.6713
X7.3524Y-2.6673
X7.3524Y-2.7165
X7.3524Y-2.7657
X7.3524Y-2.815
X7.3524Y-2.8642
X7.3524Y-2.9134
X7.365Y-3.87
X7.365Y-5.24
X7.3819Y-3.376
X7.3819Y-3.4252
X7.3819Y-3.4744
X7.3819Y-3.5236
X7.3819Y-3.5728
X7.3819Y-3.622
X7.3819Y-3.6713
X7.3819Y-3.7205
X7.4Y-4.37
X7.4Y-4.415
X7.4016Y-2.6673
X7.4016Y-2.7165
X7.4016Y-2.7657
X7.4016Y-2.815
X7.4016Y-2.8642
X7.4016Y-2.9134
X7.405Y-4.17
X7.43Y-4.605
X7.4311Y-3.376
X7.4311Y-3.4252
X7.4311Y-3.4744
X7.4311Y-3.5236
X7.4311Y-3.5728
X7.4311Y-3.622
X7.4311Y-3.6713
X7.435Y-4.94
X7.44Y-5.24
X7.4508Y-2.7165
X7.4508Y-2.7657
X7.4508Y-2.815
X7.4508Y-2.8642
X7.4508Y-2.9134
X7.455Y-3.925
X7.455Y-4.115
X7.485Y-4.17
X7.495Y-4.26
X7.495Y-4.94
X7.495Y-5.005
X7.5Y-2.7165
X7.5Y-2.7657
X7.5Y-2.8248
X7.5Y-2.874
X7.5Y-4.37
X7.5Y-4.415
X7.52Y-4.115
X7.52Y-5.18
X7.52Y-5.24
X7.555Y-4.17
X7.56Y-3.135
X7.565Y-3.935
X7.565Y-4.94
X7.565Y-5.005
X7.5787Y-2.9724
X7.5787Y-3.0217
X7.5787Y-3.0709
X7.585Y-4.115
X7.585Y-5.18
X7.585Y-5.24
X7.6Y-4.47
X7.6Y-4.51
X7.605Y-4.015
X7.61Y-4.26
X7.62Y-3.135
X7.62Y-3.695
X7.628Y-2.7854
X7.628Y-2.8346
X7.628Y-2.8839
X7.628Y-2.9331
X7.628Y-2.9724
X7.628Y-3.0217
X7.628Y-3.0709
X7.6772Y-2.7854
X7.6772Y-2.8346
X7.6772Y-2.8839
X7.6772Y-2.9331
X7.6772Y-2.9724
X7.6772Y-3.0217
X7.6772Y-3.0709
X7.68Y-3.79
X7.705Y-3.9416
X7.7264Y-2.7854
X7.7264Y-2.8346
X7.7264Y-2.8839
X7.7264Y-2.9331
X7.7264Y-2.9724
X7.7264Y-3.0217
X7.7264Y-3.0709
X7.76Y-3.83
X7.76Y-3.875
X7.7756Y-2.7854
X7.7756Y-2.8346
X7.7756Y-2.8839
X7.7756Y-2.9331
X7.7756Y-2.9724
X7.7756Y-3.0217
X7.7756Y-3.0709
X7.81Y-3.83
X7.81Y-3.875
X7.815Y-3.935
T3
X5.67Y-5.23
X5.7487Y-5.23
X5.8275Y-5.23
X5.9062Y-5.23
X5.985Y-5.23
X6.0637Y-5.23
X6.1424Y-5.23
X6.2212Y-5.23
X6.48Y-5.23
X6.5587Y-5.23
X6.6375Y-5.23
X6.7162Y-5.23
X6.795Y-5.23
X7.7233Y-4.0713
X7.7233Y-4.15
X7.7233Y-4.2288
X7.7233Y-4.3075
X7.7233Y-4.3863
X7.7233Y-4.465
X7.725Y-4.6738
X7.725Y-4.7526
X7.725Y-4.8313
X7.725Y-4.91
X7.725Y-4.9888
X7.725Y-5.0675
X7.725Y-5.1463
X7.725Y-5.225
T4
X4.66Y-5.26
X4.76Y-5.26
X4.86Y-5.26
X4.96Y-5.26
X5.06Y-5.26
X5.16Y-5.26
T5
X5.8661Y-2.1063
X5.8661Y-2.4016
X6.8898Y-2.1063
X6.8898Y-2.4016
X7.5394Y-2.1063
X7.5394Y-2.4016
T6
X6.378Y-2.1122
X6.378Y-2.3957
T0
M30
