%TF.GenerationSoftware,KiCad,Pcbnew,(6.0.5-0)*%
%TF.CreationDate,2022-05-18T00:34:25-07:00*%
%TF.ProjectId,INV_Board,494e565f-426f-4617-9264-2e6b69636164,rev?*%
%TF.SameCoordinates,Original*%
%TF.FileFunction,Paste,Top*%
%TF.FilePolarity,Positive*%
%FSLAX46Y46*%
G04 Gerber Fmt 4.6, Leading zero omitted, Abs format (unit mm)*
G04 Created by KiCad (PCBNEW (6.0.5-0)) date 2022-05-18 00:34:25*
%MOMM*%
%LPD*%
G01*
G04 APERTURE LIST*
G04 Aperture macros list*
%AMRoundRect*
0 Rectangle with rounded corners*
0 $1 Rounding radius*
0 $2 $3 $4 $5 $6 $7 $8 $9 X,Y pos of 4 corners*
0 Add a 4 corners polygon primitive as box body*
4,1,4,$2,$3,$4,$5,$6,$7,$8,$9,$2,$3,0*
0 Add four circle primitives for the rounded corners*
1,1,$1+$1,$2,$3*
1,1,$1+$1,$4,$5*
1,1,$1+$1,$6,$7*
1,1,$1+$1,$8,$9*
0 Add four rect primitives between the rounded corners*
20,1,$1+$1,$2,$3,$4,$5,0*
20,1,$1+$1,$4,$5,$6,$7,0*
20,1,$1+$1,$6,$7,$8,$9,0*
20,1,$1+$1,$8,$9,$2,$3,0*%
G04 Aperture macros list end*
%ADD10RoundRect,0.225000X-0.250000X0.225000X-0.250000X-0.225000X0.250000X-0.225000X0.250000X0.225000X0*%
%ADD11RoundRect,0.200000X0.200000X0.275000X-0.200000X0.275000X-0.200000X-0.275000X0.200000X-0.275000X0*%
%ADD12R,3.500000X2.950000*%
%ADD13RoundRect,0.200000X-0.275000X0.200000X-0.275000X-0.200000X0.275000X-0.200000X0.275000X0.200000X0*%
%ADD14RoundRect,0.240000X-0.385000X0.240000X-0.385000X-0.240000X0.385000X-0.240000X0.385000X0.240000X0*%
%ADD15RoundRect,0.150000X-0.150000X0.825000X-0.150000X-0.825000X0.150000X-0.825000X0.150000X0.825000X0*%
%ADD16RoundRect,0.200000X-0.200000X-0.275000X0.200000X-0.275000X0.200000X0.275000X-0.200000X0.275000X0*%
%ADD17RoundRect,0.225000X-0.225000X-0.250000X0.225000X-0.250000X0.225000X0.250000X-0.225000X0.250000X0*%
%ADD18RoundRect,0.250000X-1.500000X-0.550000X1.500000X-0.550000X1.500000X0.550000X-1.500000X0.550000X0*%
%ADD19R,1.100000X1.100000*%
%ADD20RoundRect,0.200000X0.275000X-0.200000X0.275000X0.200000X-0.275000X0.200000X-0.275000X-0.200000X0*%
%ADD21RoundRect,0.225000X0.225000X0.250000X-0.225000X0.250000X-0.225000X-0.250000X0.225000X-0.250000X0*%
%ADD22RoundRect,0.225000X0.250000X-0.225000X0.250000X0.225000X-0.250000X0.225000X-0.250000X-0.225000X0*%
%ADD23R,0.400000X0.650000*%
%ADD24RoundRect,0.218750X-0.218750X-0.256250X0.218750X-0.256250X0.218750X0.256250X-0.218750X0.256250X0*%
%ADD25RoundRect,0.250000X0.255000X0.440000X-0.255000X0.440000X-0.255000X-0.440000X0.255000X-0.440000X0*%
%ADD26RoundRect,0.150000X0.825000X0.150000X-0.825000X0.150000X-0.825000X-0.150000X0.825000X-0.150000X0*%
%ADD27RoundRect,0.150000X-0.587500X-0.150000X0.587500X-0.150000X0.587500X0.150000X-0.587500X0.150000X0*%
%ADD28RoundRect,0.250000X-0.325000X-0.650000X0.325000X-0.650000X0.325000X0.650000X-0.325000X0.650000X0*%
%ADD29RoundRect,0.150000X-0.825000X-0.150000X0.825000X-0.150000X0.825000X0.150000X-0.825000X0.150000X0*%
%ADD30R,0.650000X0.400000*%
%ADD31RoundRect,0.150000X0.512500X0.150000X-0.512500X0.150000X-0.512500X-0.150000X0.512500X-0.150000X0*%
%ADD32R,1.300000X1.700000*%
%ADD33R,1.200000X0.900000*%
%ADD34R,0.900000X1.200000*%
%ADD35R,1.100000X1.300000*%
%ADD36R,1.700000X1.300000*%
%ADD37RoundRect,0.250000X1.425000X-0.362500X1.425000X0.362500X-1.425000X0.362500X-1.425000X-0.362500X0*%
%ADD38R,2.950000X3.500000*%
%ADD39RoundRect,0.150000X0.150000X-0.825000X0.150000X0.825000X-0.150000X0.825000X-0.150000X-0.825000X0*%
%ADD40R,4.550000X5.250000*%
%ADD41R,4.600000X1.100000*%
%ADD42R,5.250000X4.550000*%
%ADD43R,1.100000X4.600000*%
%ADD44RoundRect,0.075000X-0.075000X0.662500X-0.075000X-0.662500X0.075000X-0.662500X0.075000X0.662500X0*%
%ADD45RoundRect,0.075000X-0.662500X0.075000X-0.662500X-0.075000X0.662500X-0.075000X0.662500X0.075000X0*%
G04 APERTURE END LIST*
D10*
%TO.C,C32*%
X144653000Y-106908000D03*
X144653000Y-108458000D03*
%TD*%
D11*
%TO.C,R28*%
X120205000Y-129032000D03*
X118555000Y-129032000D03*
%TD*%
D10*
%TO.C,C23*%
X127522500Y-109447000D03*
X127522500Y-110997000D03*
%TD*%
D12*
%TO.C,L2*%
X132080000Y-119634000D03*
X132080000Y-114184000D03*
%TD*%
D13*
%TO.C,R44*%
X137160000Y-121095000D03*
X137160000Y-122745000D03*
%TD*%
%TO.C,R16*%
X121400000Y-120587000D03*
X121400000Y-122237000D03*
%TD*%
D14*
%TO.C,U8*%
X141085000Y-110490000D03*
X139585000Y-111630000D03*
X141085000Y-111630000D03*
X139585000Y-110490000D03*
D15*
X142240000Y-108585000D03*
X140970000Y-108585000D03*
X139700000Y-108585000D03*
X138430000Y-108585000D03*
X138430000Y-113535000D03*
X139700000Y-113535000D03*
X140970000Y-113535000D03*
X142240000Y-113535000D03*
%TD*%
D16*
%TO.C,R33*%
X187135000Y-118110000D03*
X188785000Y-118110000D03*
%TD*%
D10*
%TO.C,C30*%
X136525000Y-109702000D03*
X136525000Y-111252000D03*
%TD*%
D17*
%TO.C,C33*%
X139560000Y-120650000D03*
X141110000Y-120650000D03*
%TD*%
%TO.C,C44*%
X144018000Y-123952000D03*
X145568000Y-123952000D03*
%TD*%
D18*
%TO.C,C18*%
X119568000Y-54610000D03*
X124968000Y-54610000D03*
%TD*%
D19*
%TO.C,D14*%
X143770000Y-117475000D03*
X140970000Y-117475000D03*
%TD*%
D12*
%TO.C,L3*%
X149225000Y-118480000D03*
X149225000Y-113030000D03*
%TD*%
D16*
%TO.C,R6*%
X136144000Y-62484000D03*
X137794000Y-62484000D03*
%TD*%
D17*
%TO.C,C24*%
X121260000Y-124777000D03*
X122810000Y-124777000D03*
%TD*%
D20*
%TO.C,R1*%
X191770000Y-123507000D03*
X191770000Y-121857000D03*
%TD*%
D17*
%TO.C,C22*%
X121260000Y-127127000D03*
X122810000Y-127127000D03*
%TD*%
D21*
%TO.C,C11*%
X188214000Y-131318000D03*
X186664000Y-131318000D03*
%TD*%
D17*
%TO.C,C26*%
X127382500Y-123317000D03*
X128932500Y-123317000D03*
%TD*%
D13*
%TO.C,R35*%
X138684000Y-116650000D03*
X138684000Y-118300000D03*
%TD*%
D22*
%TO.C,C17*%
X139700000Y-64262000D03*
X139700000Y-62712000D03*
%TD*%
D23*
%TO.C,U14*%
X151496000Y-124587000D03*
X152146000Y-124587000D03*
X152796000Y-124587000D03*
X152796000Y-122687000D03*
X152146000Y-122687000D03*
X151496000Y-122687000D03*
%TD*%
D24*
%TO.C,D3*%
X178435000Y-117348000D03*
X180010000Y-117348000D03*
%TD*%
D25*
%TO.C,U3*%
X131345000Y-60580000D03*
X131345000Y-62230000D03*
X130145000Y-60580000D03*
X130145000Y-62230000D03*
D26*
X133220000Y-63310000D03*
X133220000Y-62040000D03*
X133220000Y-60770000D03*
X133220000Y-59500000D03*
X128270000Y-59500000D03*
X128270000Y-60770000D03*
X128270000Y-62040000D03*
X128270000Y-63310000D03*
%TD*%
D27*
%TO.C,Q1*%
X181259000Y-120523000D03*
X181259000Y-122423000D03*
X183134000Y-121473000D03*
%TD*%
D10*
%TO.C,C45*%
X141986000Y-125476000D03*
X141986000Y-127026000D03*
%TD*%
D17*
%TO.C,C31*%
X139560000Y-123190000D03*
X141110000Y-123190000D03*
%TD*%
D28*
%TO.C,C3*%
X133350000Y-55880000D03*
X136300000Y-55880000D03*
%TD*%
D29*
%TO.C,U2*%
X177422000Y-125349000D03*
X177422000Y-126619000D03*
X177422000Y-127889000D03*
X177422000Y-129159000D03*
X182372000Y-129159000D03*
X182372000Y-127889000D03*
X182372000Y-126619000D03*
X182372000Y-125349000D03*
%TD*%
D10*
%TO.C,C21*%
X118999000Y-114033000D03*
X118999000Y-115583000D03*
%TD*%
D11*
%TO.C,R2*%
X183705000Y-117348000D03*
X182055000Y-117348000D03*
%TD*%
D21*
%TO.C,C12*%
X188214000Y-129286000D03*
X186664000Y-129286000D03*
%TD*%
D19*
%TO.C,D4*%
X128140000Y-56896000D03*
X130940000Y-56896000D03*
%TD*%
D27*
%TO.C,Q2*%
X186387500Y-122174000D03*
X186387500Y-124074000D03*
X188262500Y-123124000D03*
%TD*%
D13*
%TO.C,R29*%
X119126000Y-124587000D03*
X119126000Y-126237000D03*
%TD*%
D17*
%TO.C,C43*%
X144018000Y-121412000D03*
X145568000Y-121412000D03*
%TD*%
D11*
%TO.C,R43*%
X138810000Y-125730000D03*
X137160000Y-125730000D03*
%TD*%
D17*
%TO.C,C25*%
X129908000Y-110109000D03*
X131458000Y-110109000D03*
%TD*%
%TO.C,C5*%
X186677000Y-127254000D03*
X188227000Y-127254000D03*
%TD*%
%TO.C,C29*%
X190995000Y-118110000D03*
X192545000Y-118110000D03*
%TD*%
D10*
%TO.C,C28*%
X124982500Y-126987000D03*
X124982500Y-128537000D03*
%TD*%
D14*
%TO.C,U5*%
X124194000Y-114238000D03*
X122694000Y-115378000D03*
X124194000Y-115378000D03*
X122694000Y-114238000D03*
D15*
X125349000Y-112333000D03*
X124079000Y-112333000D03*
X122809000Y-112333000D03*
X121539000Y-112333000D03*
X121539000Y-117283000D03*
X122809000Y-117283000D03*
X124079000Y-117283000D03*
X125349000Y-117283000D03*
%TD*%
D17*
%TO.C,C37*%
X147574000Y-108966000D03*
X149124000Y-108966000D03*
%TD*%
D30*
%TO.C,U12*%
X176977000Y-109967000D03*
X176977000Y-110617000D03*
X176977000Y-111267000D03*
X178877000Y-111267000D03*
X178877000Y-110617000D03*
X178877000Y-109967000D03*
%TD*%
D17*
%TO.C,C27*%
X127242500Y-125857000D03*
X128792500Y-125857000D03*
%TD*%
D28*
%TO.C,C2*%
X130908000Y-52832000D03*
X133858000Y-52832000D03*
%TD*%
D23*
%TO.C,U13*%
X177023000Y-133665000D03*
X177673000Y-133665000D03*
X178323000Y-133665000D03*
X178323000Y-131765000D03*
X177673000Y-131765000D03*
X177023000Y-131765000D03*
%TD*%
D19*
%TO.C,D8*%
X126610000Y-120967000D03*
X123810000Y-120967000D03*
%TD*%
D17*
%TO.C,C54*%
X165225000Y-67150000D03*
X166775000Y-67150000D03*
%TD*%
D20*
%TO.C,R34*%
X140716000Y-104177500D03*
X140716000Y-102527500D03*
%TD*%
%TO.C,R26*%
X169545000Y-111950000D03*
X169545000Y-110300000D03*
%TD*%
D16*
%TO.C,R19*%
X185357000Y-103124000D03*
X187007000Y-103124000D03*
%TD*%
D20*
%TO.C,R32*%
X135890000Y-100672500D03*
X135890000Y-99022500D03*
%TD*%
D16*
%TO.C,R31*%
X135547500Y-96520000D03*
X137197500Y-96520000D03*
%TD*%
D20*
%TO.C,R24*%
X165100000Y-99732500D03*
X165100000Y-98082500D03*
%TD*%
D16*
%TO.C,R23*%
X164910000Y-95885000D03*
X166560000Y-95885000D03*
%TD*%
D20*
%TO.C,R18*%
X191000000Y-99732500D03*
X191000000Y-98082500D03*
%TD*%
D16*
%TO.C,R17*%
X192367500Y-94996000D03*
X194017500Y-94996000D03*
%TD*%
D31*
%TO.C,U7*%
X140372500Y-100330000D03*
X140372500Y-99380000D03*
X140372500Y-98430000D03*
X138097500Y-98430000D03*
X138097500Y-99380000D03*
X138097500Y-100330000D03*
%TD*%
%TO.C,U6*%
X169537500Y-100010000D03*
X169537500Y-99060000D03*
X169537500Y-98110000D03*
X167262500Y-98110000D03*
X167262500Y-99060000D03*
X167262500Y-100010000D03*
%TD*%
%TO.C,U4*%
X195617500Y-99248000D03*
X195617500Y-98298000D03*
X195617500Y-97348000D03*
X193342500Y-97348000D03*
X193342500Y-98298000D03*
X193342500Y-99248000D03*
%TD*%
D17*
%TO.C,C47*%
X191975000Y-67250000D03*
X193525000Y-67250000D03*
%TD*%
D16*
%TO.C,TH1*%
X185331500Y-97028000D03*
X186981500Y-97028000D03*
%TD*%
D11*
%TO.C,R22*%
X157136500Y-117729000D03*
X155486500Y-117729000D03*
%TD*%
D20*
%TO.C,R30*%
X155575000Y-125615000D03*
X155575000Y-123965000D03*
%TD*%
D13*
%TO.C,R20*%
X165735000Y-127978500D03*
X165735000Y-129628500D03*
%TD*%
D32*
%TO.C,D9*%
X157960000Y-119888000D03*
X154460000Y-119888000D03*
%TD*%
D21*
%TO.C,C64*%
X176275000Y-74500000D03*
X174725000Y-74500000D03*
%TD*%
%TO.C,C61*%
X176275000Y-72250000D03*
X174725000Y-72250000D03*
%TD*%
%TO.C,C58*%
X176275000Y-70000000D03*
X174725000Y-70000000D03*
%TD*%
%TO.C,C56*%
X176275000Y-67750000D03*
X174725000Y-67750000D03*
%TD*%
D17*
%TO.C,C53*%
X165225000Y-69400000D03*
X166775000Y-69400000D03*
%TD*%
%TO.C,C51*%
X164960000Y-71650000D03*
X166510000Y-71650000D03*
%TD*%
D21*
%TO.C,C50*%
X149525000Y-75250000D03*
X147975000Y-75250000D03*
%TD*%
%TO.C,C74*%
X149525000Y-73000000D03*
X147975000Y-73000000D03*
%TD*%
%TO.C,C73*%
X149525000Y-70750000D03*
X147975000Y-70750000D03*
%TD*%
D17*
%TO.C,C72*%
X137775000Y-67500000D03*
X139325000Y-67500000D03*
%TD*%
%TO.C,C70*%
X137775000Y-69750000D03*
X139325000Y-69750000D03*
%TD*%
%TO.C,C69*%
X137775000Y-72000000D03*
X139325000Y-72000000D03*
%TD*%
D21*
%TO.C,C67*%
X121616000Y-74168000D03*
X120066000Y-74168000D03*
%TD*%
%TO.C,C62*%
X121616000Y-71744000D03*
X120066000Y-71744000D03*
%TD*%
D10*
%TO.C,C20*%
X186690000Y-112229500D03*
X186690000Y-113779500D03*
%TD*%
%TO.C,C19*%
X189230000Y-112229500D03*
X189230000Y-113779500D03*
%TD*%
%TO.C,C16*%
X191770000Y-112229500D03*
X191770000Y-113779500D03*
%TD*%
D20*
%TO.C,R14*%
X149352000Y-129323500D03*
X149352000Y-127673500D03*
%TD*%
D13*
%TO.C,R13*%
X152019000Y-127673500D03*
X152019000Y-129323500D03*
%TD*%
D19*
%TO.C,D17*%
X143510000Y-100330000D03*
X143510000Y-97530000D03*
%TD*%
D17*
%TO.C,C7*%
X172732500Y-112395000D03*
X174282500Y-112395000D03*
%TD*%
D20*
%TO.C,R15*%
X186690000Y-110019500D03*
X186690000Y-108369500D03*
%TD*%
%TO.C,R11*%
X189230000Y-110019500D03*
X189230000Y-108369500D03*
%TD*%
%TO.C,R7*%
X191770000Y-110019500D03*
X191770000Y-108369500D03*
%TD*%
D16*
%TO.C,R12*%
X181394500Y-112014000D03*
X183044500Y-112014000D03*
%TD*%
%TO.C,R10*%
X181420000Y-109982000D03*
X183070000Y-109982000D03*
%TD*%
%TO.C,R5*%
X181394500Y-107950000D03*
X183044500Y-107950000D03*
%TD*%
D13*
%TO.C,R25*%
X158242000Y-127724500D03*
X158242000Y-129374500D03*
%TD*%
%TO.C,R21*%
X155194000Y-127724500D03*
X155194000Y-129374500D03*
%TD*%
%TO.C,R27*%
X167640000Y-127978500D03*
X167640000Y-129628500D03*
%TD*%
D33*
%TO.C,D21*%
X143256000Y-92201000D03*
X143256000Y-88901000D03*
%TD*%
%TO.C,D20*%
X123698000Y-79631000D03*
X123698000Y-82931000D03*
%TD*%
%TO.C,D25*%
X170434000Y-91440000D03*
X170434000Y-88140000D03*
%TD*%
%TO.C,D24*%
X150876000Y-79250000D03*
X150876000Y-82550000D03*
%TD*%
%TO.C,D23*%
X197358000Y-91565000D03*
X197358000Y-88265000D03*
%TD*%
D34*
%TO.C,D22*%
X177672000Y-84201000D03*
X174372000Y-84201000D03*
%TD*%
D17*
%TO.C,C57*%
X191975000Y-69500000D03*
X193525000Y-69500000D03*
%TD*%
%TO.C,C59*%
X191975000Y-71750000D03*
X193525000Y-71750000D03*
%TD*%
D19*
%TO.C,D15*%
X119634000Y-100838000D03*
X119634000Y-98038000D03*
%TD*%
D22*
%TO.C,C1*%
X131826000Y-130086500D03*
X131826000Y-128536500D03*
%TD*%
D10*
%TO.C,C71*%
X155448000Y-104254000D03*
X155448000Y-105804000D03*
%TD*%
D35*
%TO.C,X1*%
X163260800Y-109560400D03*
X163260800Y-111660400D03*
X164910800Y-111660400D03*
X164910800Y-109560400D03*
%TD*%
D11*
%TO.C,R65*%
X164083000Y-103505000D03*
X162433000Y-103505000D03*
%TD*%
D16*
%TO.C,R58*%
X121603000Y-107696000D03*
X123253000Y-107696000D03*
%TD*%
%TO.C,R51*%
X131255000Y-106045000D03*
X132905000Y-106045000D03*
%TD*%
D13*
%TO.C,R42*%
X152908000Y-108078000D03*
X152908000Y-109728000D03*
%TD*%
D20*
%TO.C,R41*%
X154813000Y-109728000D03*
X154813000Y-108078000D03*
%TD*%
D13*
%TO.C,R37*%
X170815000Y-104585000D03*
X170815000Y-106235000D03*
%TD*%
%TO.C,R36*%
X165735000Y-105067500D03*
X165735000Y-106717500D03*
%TD*%
D32*
%TO.C,D26*%
X132715000Y-103505000D03*
X136215000Y-103505000D03*
%TD*%
D36*
%TO.C,D19*%
X157226000Y-114935000D03*
X157226000Y-111435000D03*
%TD*%
%TO.C,D13*%
X168275000Y-104775000D03*
X168275000Y-108275000D03*
%TD*%
D32*
%TO.C,D11*%
X175189000Y-122809000D03*
X178689000Y-122809000D03*
%TD*%
D21*
%TO.C,C10*%
X163182500Y-124460000D03*
X161632500Y-124460000D03*
%TD*%
D37*
%TO.C,R52*%
X142250000Y-83586500D03*
X142250000Y-77661500D03*
%TD*%
%TO.C,R54*%
X170815000Y-82972500D03*
X170815000Y-77047500D03*
%TD*%
%TO.C,R53*%
X196850000Y-82972500D03*
X196850000Y-77047500D03*
%TD*%
D13*
%TO.C,R66*%
X157480000Y-106363000D03*
X157480000Y-108013000D03*
%TD*%
D20*
%TO.C,R4*%
X139065000Y-60032500D03*
X139065000Y-58382500D03*
%TD*%
D11*
%TO.C,R3*%
X137756500Y-64770000D03*
X136106500Y-64770000D03*
%TD*%
D38*
%TO.C,L1*%
X124714000Y-62484000D03*
X119264000Y-62484000D03*
%TD*%
D10*
%TO.C,C13*%
X128270000Y-51574500D03*
X128270000Y-53124500D03*
%TD*%
D21*
%TO.C,C8*%
X129553000Y-65405000D03*
X128003000Y-65405000D03*
%TD*%
D22*
%TO.C,C4*%
X135890000Y-59830000D03*
X135890000Y-58280000D03*
%TD*%
D39*
%TO.C,U9*%
X122555000Y-104775000D03*
X123825000Y-104775000D03*
X125095000Y-104775000D03*
X126365000Y-104775000D03*
X126365000Y-99825000D03*
X125095000Y-99825000D03*
X123825000Y-99825000D03*
X122555000Y-99825000D03*
%TD*%
%TO.C,U11*%
X146050000Y-104075000D03*
X147320000Y-104075000D03*
X148590000Y-104075000D03*
X149860000Y-104075000D03*
X149860000Y-99125000D03*
X148590000Y-99125000D03*
X147320000Y-99125000D03*
X146050000Y-99125000D03*
%TD*%
D37*
%TO.C,R55*%
X138250000Y-83586500D03*
X138250000Y-77661500D03*
%TD*%
%TO.C,R57*%
X166815000Y-82972500D03*
X166815000Y-77047500D03*
%TD*%
D16*
%TO.C,R47*%
X128715000Y-103505000D03*
X130365000Y-103505000D03*
%TD*%
%TO.C,R45*%
X119444000Y-81661000D03*
X121094000Y-81661000D03*
%TD*%
%TO.C,R50*%
X152057500Y-103505000D03*
X153707500Y-103505000D03*
%TD*%
%TO.C,R46*%
X147003000Y-96266000D03*
X148653000Y-96266000D03*
%TD*%
D11*
%TO.C,R38*%
X123735500Y-96774000D03*
X122085500Y-96774000D03*
%TD*%
%TO.C,R40*%
X145122500Y-95250000D03*
X143472500Y-95250000D03*
%TD*%
D16*
%TO.C,R48*%
X175705000Y-94361000D03*
X177355000Y-94361000D03*
%TD*%
D40*
%TO.C,Q4*%
X127450000Y-86825000D03*
X132300000Y-92375000D03*
X132300000Y-86825000D03*
X127450000Y-92375000D03*
D41*
X139025000Y-92140000D03*
X139025000Y-87060000D03*
%TD*%
D42*
%TO.C,Q3*%
X131775000Y-69450000D03*
X126225000Y-74300000D03*
X131775000Y-74300000D03*
X126225000Y-69450000D03*
D43*
X126460000Y-81025000D03*
X131540000Y-81025000D03*
%TD*%
D40*
%TO.C,Q8*%
X154801000Y-87141000D03*
X159651000Y-92691000D03*
X159651000Y-87141000D03*
X154801000Y-92691000D03*
D41*
X166376000Y-92456000D03*
X166376000Y-87376000D03*
%TD*%
D42*
%TO.C,Q7*%
X159275000Y-69400000D03*
X153725000Y-74250000D03*
X159275000Y-74250000D03*
X153725000Y-69400000D03*
D43*
X153960000Y-80975000D03*
X159040000Y-80975000D03*
%TD*%
D40*
%TO.C,Q6*%
X181652000Y-86887000D03*
X186502000Y-92437000D03*
X186502000Y-86887000D03*
X181652000Y-92437000D03*
D41*
X193227000Y-92202000D03*
X193227000Y-87122000D03*
%TD*%
D17*
%TO.C,C68*%
X137225000Y-74250000D03*
X138775000Y-74250000D03*
%TD*%
%TO.C,C52*%
X165455000Y-73660000D03*
X167005000Y-73660000D03*
%TD*%
D21*
%TO.C,C48*%
X121666000Y-69596000D03*
X120116000Y-69596000D03*
%TD*%
D10*
%TO.C,C38*%
X120142000Y-103619000D03*
X120142000Y-105169000D03*
%TD*%
%TO.C,C40*%
X143510000Y-102577500D03*
X143510000Y-104127500D03*
%TD*%
%TO.C,C34*%
X128270000Y-99555000D03*
X128270000Y-101105000D03*
%TD*%
%TO.C,C36*%
X151765000Y-99555000D03*
X151765000Y-101105000D03*
%TD*%
D17*
%TO.C,C9*%
X173037500Y-114300000D03*
X174587500Y-114300000D03*
%TD*%
D39*
%TO.C,U10*%
X175895000Y-104140000D03*
X177165000Y-104140000D03*
X178435000Y-104140000D03*
X179705000Y-104140000D03*
X179705000Y-99190000D03*
X178435000Y-99190000D03*
X177165000Y-99190000D03*
X175895000Y-99190000D03*
%TD*%
D44*
%TO.C,U1*%
X171025000Y-115217500D03*
X170525000Y-115217500D03*
X170025000Y-115217500D03*
X169525000Y-115217500D03*
X169025000Y-115217500D03*
X168525000Y-115217500D03*
X168025000Y-115217500D03*
X167525000Y-115217500D03*
X167025000Y-115217500D03*
X166525000Y-115217500D03*
X166025000Y-115217500D03*
X165525000Y-115217500D03*
D45*
X164112500Y-116630000D03*
X164112500Y-117130000D03*
X164112500Y-117630000D03*
X164112500Y-118130000D03*
X164112500Y-118630000D03*
X164112500Y-119130000D03*
X164112500Y-119630000D03*
X164112500Y-120130000D03*
X164112500Y-120630000D03*
X164112500Y-121130000D03*
X164112500Y-121630000D03*
X164112500Y-122130000D03*
D44*
X165525000Y-123542500D03*
X166025000Y-123542500D03*
X166525000Y-123542500D03*
X167025000Y-123542500D03*
X167525000Y-123542500D03*
X168025000Y-123542500D03*
X168525000Y-123542500D03*
X169025000Y-123542500D03*
X169525000Y-123542500D03*
X170025000Y-123542500D03*
X170525000Y-123542500D03*
X171025000Y-123542500D03*
D45*
X172437500Y-122130000D03*
X172437500Y-121630000D03*
X172437500Y-121130000D03*
X172437500Y-120630000D03*
X172437500Y-120130000D03*
X172437500Y-119630000D03*
X172437500Y-119130000D03*
X172437500Y-118630000D03*
X172437500Y-118130000D03*
X172437500Y-117630000D03*
X172437500Y-117130000D03*
X172437500Y-116630000D03*
%TD*%
D16*
%TO.C,R49*%
X181420000Y-104140000D03*
X183070000Y-104140000D03*
%TD*%
D11*
%TO.C,R39*%
X176872500Y-96520000D03*
X175222500Y-96520000D03*
%TD*%
D37*
%TO.C,R56*%
X192850000Y-82972500D03*
X192850000Y-77047500D03*
%TD*%
D42*
%TO.C,Q5*%
X186025000Y-69250000D03*
X180475000Y-74100000D03*
X186025000Y-74100000D03*
X180475000Y-69250000D03*
D43*
X180710000Y-80825000D03*
X185790000Y-80825000D03*
%TD*%
D19*
%TO.C,D16*%
X173355000Y-101225000D03*
X173355000Y-98425000D03*
%TD*%
D17*
%TO.C,C60*%
X191225000Y-73750000D03*
X192775000Y-73750000D03*
%TD*%
D10*
%TO.C,C39*%
X173990000Y-103365000D03*
X173990000Y-104915000D03*
%TD*%
%TO.C,C35*%
X181610000Y-99402500D03*
X181610000Y-100952500D03*
%TD*%
D17*
%TO.C,C6*%
X172732500Y-110490000D03*
X174282500Y-110490000D03*
%TD*%
D21*
%TO.C,C55*%
X149525000Y-68500000D03*
X147975000Y-68500000D03*
%TD*%
M02*
